<svg width="40" height="40" viewBox="0 0 40 40" fill="none" xmlns="http://www.w3.org/2000/svg">
<path d="M36.2025 19.4624V24.6188L36.3908 24.6517C37.0184 24.6517 37.3008 25.1443 37.3008 25.9983C37.3008 26.1625 37.2067 27.2135 37.1753 27.4106C37.0184 28.1331 36.4536 28.0674 35.826 28.0674H33.9119C33.6609 30.6621 31.5585 32.6655 29.0169 32.6655C26.4752 32.6655 24.4042 30.6292 24.1218 28.0674H15.179C14.9279 30.6621 12.8256 32.6655 10.2839 32.6655C7.74226 32.6655 5.67128 30.6292 5.38888 28.0674H3.47479C2.84722 28.0674 2.25103 28.1331 2.12551 27.4106C2.09414 27.2463 2 26.1953 2 25.9983C2 25.1443 2.28241 24.6517 2.90998 24.6517H3.12963L3.72582 22.3526L4.32201 20.0536C4.44752 19.4296 5.13785 18.5428 5.76542 18.3457C5.76542 18.3457 8.30708 16.7035 9.56221 16.2437C10.1584 16.0138 11.4763 14.8643 11.7587 14.306C12.3863 13.1564 14.3004 9.14953 14.3004 9.14953C14.5828 8.59118 15.3672 8 16.0262 8H28.9541C29.6131 8 30.272 8.55834 30.3975 9.14953L31.684 15.357C31.8096 15.9481 32.4371 16.605 33.0647 16.8021L35.0729 17.7874C35.6691 17.9844 36.2025 18.8384 36.2025 19.4624Z" stroke="#C5C8CD" stroke-width="1.5"/>
<path d="M28.772 15.0667H23.7111V10.2607H28.0241C28.0262 10.2652 28.0275 10.2689 28.0283 10.2715L28.772 15.0667Z" stroke="#C5C8CD" stroke-width="1.5"/>
<path d="M20.5466 15.0994H14.5358L16.51 10.4353C16.5185 10.4224 16.5299 10.407 16.5449 10.3904C16.5674 10.3652 16.5932 10.3423 16.6189 10.3241C16.6429 10.3072 16.6617 10.2978 16.6727 10.2935H20.5466V15.0994Z" stroke="#C5C8CD" stroke-width="1.5"/>
</svg>
