<svg width="40" height="40" viewBox="0 0 40 40" fill="none" xmlns="http://www.w3.org/2000/svg">
<path d="M34.4786 18.2411L32.4844 17.2437C31.8612 17.0442 31.238 16.3792 31.1133 15.7808L29.8358 9.49714C29.7111 8.89869 29.0568 8.3335 28.4024 8.3335H15.5645C14.9101 8.3335 14.1311 8.93194 13.8507 9.49714C13.8507 9.49714 11.9499 13.5533 11.3267 14.7169C11.0463 15.2821 9.73757 16.4457 9.14552 16.6785C7.89912 17.1439 5.37516 18.8063 5.37516 18.8063C4.75196 19.0057 4.06644 19.9034 3.9418 20.5351L4.2534 21.732L3.3186 22.8624L2.72656 25.1897H35.6004V19.9699C35.6004 19.3382 35.0707 18.4738 34.4786 18.2743V18.2411Z" fill="#3888EE"/>
<path d="M36.721 26.5203C36.721 25.6559 36.4406 25.1572 35.8174 25.1572H2.56966C1.94646 25.1572 1.66602 25.6559 1.66602 26.5203C1.66602 26.7198 1.7595 27.7837 1.79066 27.95C1.9153 28.6814 2.50734 28.6149 3.13054 28.6149H35.2877C35.9109 28.6149 36.4717 28.6814 36.6275 27.95C36.6587 27.7505 36.7522 26.6866 36.7522 26.5203H36.721Z" fill="#87B8F5"/>
<path d="M22.4863 15.8137C22.4863 16.1794 22.7356 16.4454 23.016 16.4454H28.6248C28.9053 16.4454 29.0922 16.1462 29.0611 15.8137L28.2821 10.6937C28.2198 10.3612 27.9393 10.062 27.6589 10.062H23.0472C22.7668 10.062 22.5175 10.3612 22.5175 10.6937V15.7805L22.4863 15.8137Z" fill="#3E4347"/>
<path d="M20.8288 10.7274C20.8288 10.3617 20.5796 10.0957 20.2991 10.0957H16.2172C15.9056 10.0957 15.5628 10.3617 15.407 10.6609L13.2258 15.9139C13.07 16.2131 13.2258 16.4791 13.5062 16.4791H20.2991C20.6107 16.4791 20.8288 16.1799 20.8288 15.8474V10.7606V10.7274Z" fill="#3E4347"/>
<path d="M3.35156 22.8619H5.00304C5.25232 22.8619 5.56392 22.5959 5.6574 22.2967L6.00016 21.1331C6.09364 20.8006 5.969 20.5679 5.68856 20.5679H3.9436L3.35156 22.8952V22.8619Z" fill="white"/>
<path d="M35.6307 20.5347H34.2908C34.0727 20.5347 33.8234 20.8007 33.7611 21.0999C33.7611 21.0999 33.5429 21.9643 33.4806 22.2635C33.3871 22.596 33.5118 22.8287 33.7299 22.8287H35.6618V20.5015L35.6307 20.5347Z" fill="#FFE62E"/>
<path d="M9.89008 22.8628C12.601 22.8628 14.8134 25.1901 14.8134 28.0826C14.8134 30.975 12.601 33.3023 9.89008 33.3023C7.17916 33.3023 4.9668 30.975 4.9668 28.0826C4.9668 25.1901 7.17916 22.8628 9.89008 22.8628Z" fill="#5FA0F1"/>
<path d="M12.6908 28.0821C12.6908 29.7444 11.4444 31.0743 9.88643 31.0743C8.32843 31.0743 7.08203 29.7444 7.08203 28.0821C7.08203 26.4197 8.32843 25.0898 9.88643 25.0898C11.4444 25.0898 12.6908 26.4197 12.6908 28.0821Z" fill="#E8E8E8"/>
<path d="M10.555 26.5865C10.4303 26.9854 10.1499 27.3179 9.90059 27.3179C9.65131 27.3179 9.33971 26.9854 9.24623 26.5865C9.12159 26.1542 9.43319 25.8218 9.93175 25.8218C10.4303 25.8218 10.7419 26.1542 10.6173 26.5532L10.555 26.5865Z" fill="#3E4347"/>
<path d="M9.01753 26.719C9.26681 27.0182 9.39145 27.4504 9.26681 27.6831C9.14217 27.9159 8.73709 28.0156 8.33201 27.9491H8.30085C7.92693 27.8494 7.80229 27.4172 8.05157 26.9517C8.30085 26.4863 8.70593 26.3865 8.98637 26.6857L9.01753 26.719Z" fill="#3E4347"/>
<path d="M8.33201 28.1815C8.70593 28.0818 9.14217 28.1815 9.26681 28.4475C9.39145 28.6802 9.26681 29.1124 9.01753 29.4116H8.98637C8.70593 29.7441 8.30085 29.6444 8.05157 29.1789C7.80229 28.7134 7.92693 28.2812 8.30085 28.1815H8.33201Z" fill="#3E4347"/>
<path d="M9.20309 29.5459C9.32773 29.1469 9.60817 28.8145 9.85745 28.8145C10.1067 28.8145 10.4183 29.1469 10.5118 29.5459C10.6364 29.9781 10.3248 30.3106 9.82628 30.3106C9.32772 30.3106 9.01613 29.9781 9.14077 29.5791L9.20309 29.5459Z" fill="#3E4347"/>
<path d="M10.7669 29.4117C10.5176 29.1124 10.393 28.6802 10.5176 28.4475C10.6423 28.2148 11.0474 28.115 11.4524 28.2148H11.4836C11.8575 28.3145 11.9822 28.7467 11.7329 29.2122C11.4836 29.6776 11.0785 29.7774 10.7981 29.4782L10.7669 29.4117Z" fill="#3E4347"/>
<path d="M11.4192 27.9493C11.0453 28.049 10.6091 27.9493 10.4844 27.7166C10.3598 27.4838 10.4844 27.0516 10.7337 26.7524H10.7649C11.0453 26.4199 11.4504 26.5197 11.6997 26.9851C11.949 27.4506 11.8243 27.8828 11.4504 27.9825H11.4192V27.9493Z" fill="#3E4347"/>
<path d="M11.4169 30.1436L10.7937 30.5094L8.33203 25.9878L8.95523 25.6221L11.4169 30.1436Z" fill="#E8E8E8"/>
<path d="M12.351 27.6826H7.42773V28.414H12.351V27.6826Z" fill="#E8E8E8"/>
<path d="M10.7937 25.6221L11.4169 25.9878L8.95523 30.5094L8.33203 30.1436L10.7937 25.6221Z" fill="#E8E8E8"/>
<path d="M28.4975 22.8628C31.2084 22.8628 33.4208 25.1901 33.4208 28.0826C33.4208 30.975 31.2084 33.3023 28.4975 33.3023C25.7866 33.3023 23.5742 30.975 23.5742 28.0826C23.5742 25.1901 25.7866 22.8628 28.4975 22.8628Z" fill="#5FA0F1"/>
<path d="M31.3315 28.0821C31.3315 29.7444 30.0851 31.0743 28.5271 31.0743C26.9691 31.0743 25.7227 29.7444 25.7227 28.0821C25.7227 26.4197 26.9691 25.0898 28.5271 25.0898C30.0851 25.0898 31.3315 26.4197 31.3315 28.0821Z" fill="#E8E8E8"/>
<path d="M29.18 26.5865C29.0553 26.9854 28.7749 27.3179 28.5256 27.3179C28.2763 27.3179 27.9647 26.9854 27.8712 26.5865C27.7466 26.1542 28.0582 25.8218 28.5568 25.8218C29.0553 25.8218 29.3669 26.1542 29.2423 26.5532L29.18 26.5865Z" fill="#3E4347"/>
<path d="M27.6191 26.719C27.8684 27.0182 27.993 27.4504 27.8684 27.6831C27.7437 27.9159 27.3386 28.0156 26.9336 27.9491H26.9024C26.5285 27.8494 26.4038 27.4172 26.6531 26.9517C26.9024 26.4863 27.3075 26.3865 27.5879 26.6857H27.6191V26.719Z" fill="#3E4347"/>
<path d="M26.9726 28.1815C27.3466 28.0818 27.7828 28.1815 27.9074 28.4475C28.0321 28.6802 27.9074 29.1124 27.6582 29.4116H27.627C27.3466 29.7441 26.9415 29.6444 26.6922 29.1789C26.4429 28.7134 26.5676 28.2812 26.9415 28.1815H26.9726Z" fill="#3E4347"/>
<path d="M27.8359 29.5459C27.9605 29.1469 28.241 28.8145 28.4903 28.8145C28.7395 28.8145 29.0511 29.1469 29.1446 29.5459C29.2693 29.9781 28.9577 30.3106 28.4591 30.3106C27.9605 30.3106 27.6489 29.9781 27.7736 29.5791L27.8359 29.5459Z" fill="#3E4347"/>
<path d="M29.3665 29.4117C29.1173 29.1124 28.9926 28.6802 29.1173 28.4475C29.2419 28.2148 29.647 28.115 30.0521 28.2148H30.0832C30.4571 28.3145 30.5818 28.7467 30.3325 29.2122C30.0832 29.6776 29.6781 29.7774 29.3977 29.4782H29.3665V29.4117Z" fill="#3E4347"/>
<path d="M30.0521 27.9493C29.6781 28.049 29.2419 27.9493 29.1173 27.7166C28.9926 27.4838 29.1173 27.0516 29.3665 26.7524H29.3977C29.6781 26.4199 30.0832 26.5197 30.3325 26.9851C30.5818 27.4506 30.4571 27.8828 30.0832 27.9825H30.0521V27.9493Z" fill="#3E4347"/>
<path d="M30.0575 30.1436L29.4343 30.5094L26.9727 25.9878L27.5959 25.6221L30.0575 30.1436Z" fill="#E8E8E8"/>
<path d="M30.9584 27.6826H26.0352V28.414H30.9584V27.6826Z" fill="#E8E8E8"/>
<path d="M29.4343 25.6221L30.0575 25.9878L27.5959 30.5094L26.9727 30.1436L29.4343 25.6221Z" fill="#E8E8E8"/>
</svg>
