<svg width="40" height="40" viewBox="0 0 40 40" fill="none" xmlns="http://www.w3.org/2000/svg">
<path d="M5.7748 18.6C5.36672 18.6 5.03516 18.975 5.03516 19.45C5.03516 19.925 5.36672 20.3 5.7748 20.3H6.74399C6.89702 22.4 8.01924 24.275 9.8301 25.7C9.98313 26.225 10.0596 26.8 10.0596 27.375C10.0596 29.175 9.29449 30.5 8.09576 31.6H7.43263C7.02455 31.6 6.69298 31.925 6.69298 32.3C6.69298 32.675 7.02455 33 7.43263 33H27.8621C28.2702 33 28.6018 32.675 28.6018 32.3C28.6018 31.925 28.2702 31.6 27.8621 31.6H27.199C26.0003 30.5 25.2351 29.175 25.2351 27.375C25.2351 27.1 25.3116 26.85 25.3371 26.6C29.0099 26.5 31.9684 23.6 32.045 19.975H32.555C32.9631 19.975 33.2947 19.475 33.2947 19.225V5.5C33.6773 5.35 33.9578 4.925 33.9578 4.65V3.75C33.9578 3.425 33.5497 3 33.0651 3H27.403C26.9184 3 26.5104 3.425 26.5104 3.75V4.65C26.5104 4.82036 26.618 5.04828 26.7909 5.23273V16.875H5.7748C5.36672 16.875 5.03516 17.25 5.03516 17.725C5.03516 18.2 5.36672 18.575 5.7748 18.575" stroke="#C5C8CD" stroke-width="1.5"/>
<path d="M28.1666 17.2505C28.9572 17.2505 29.5948 17.8755 29.5948 18.6505C29.5948 19.4255 28.9572 20.0505 28.1666 20.0505C27.3759 20.0505 26.7383 19.4255 26.7383 18.6505C26.7383 17.8755 27.3759 17.2505 28.1666 17.2505Z" stroke="#C5C8CD" stroke-width="1.5"/>
</svg>
