<svg width="40" height="40" viewBox="0 0 40 40" fill="none" xmlns="http://www.w3.org/2000/svg">
<path d="M32.9265 19.9263C32.9265 23.63 29.9012 26.6424 26.1816 26.6424V19.9263H32.9265Z" fill="#4B94F0"/>
<path d="M33.3996 4.86426H28.8617C28.4649 4.86426 28.1426 5.20994 28.1426 5.45686V19.309C28.1426 19.5559 28.4649 20.0497 28.8617 20.0497H33.3996C33.7963 20.0497 34.1187 19.5559 34.1187 19.309V5.48155C34.1187 5.23464 33.7963 4.88895 33.3996 4.88895V4.86426Z" fill="#87B8F5"/>
<path d="M33.8651 3.3335H28.3601C27.8889 3.3335 27.4922 3.75326 27.4922 4.07425V4.96316C27.4922 5.28415 27.8889 5.85206 28.3601 5.85206H33.8651C34.3362 5.85206 34.733 5.25946 34.733 4.96316V4.07425C34.733 3.75326 34.3362 3.3335 33.8651 3.3335Z" fill="#73ACF3"/>
<path d="M26.2795 27.4074C26.2795 26.2469 26.577 25.1605 27.0978 24.2222H10.7068C11.2276 25.1605 11.5252 26.2469 11.5252 27.4074C11.5252 29.5803 10.4589 31.0618 8.82227 32.2717H28.9823C27.3457 31.0618 26.2795 29.5803 26.2795 27.4074Z" fill="#73ACF3"/>
<path d="M29.5293 32.2729C29.5293 32.6433 29.2069 32.9643 28.8102 32.9643H8.94763C8.55088 32.9643 8.22852 32.6433 8.22852 32.2729C8.22852 31.9025 8.55088 31.5815 8.94763 31.5815H28.8102C29.2069 31.5815 29.5293 31.9025 29.5293 32.2729Z" fill="#87B8F5"/>
<path d="M18.9095 28.2474C24.7864 28.2474 29.5474 24.5189 29.5474 19.9263H8.27148C8.27148 24.5189 13.0325 28.2474 18.9095 28.2474Z" fill="#87B8F5"/>
<path d="M28.4627 19.5802C28.4627 20.0494 28.1404 20.4198 27.7436 20.4198H7.38513C6.98838 20.4198 6.66602 20.0494 6.66602 19.5802C6.66602 19.1111 6.98838 18.7407 7.38513 18.7407H27.7436C28.1404 18.7407 28.4627 19.1111 28.4627 19.5802Z" fill="#73ACF3"/>
<path d="M28.4627 18.0173C28.4627 18.4864 28.1404 18.8568 27.7436 18.8568H7.38513C6.98838 18.8568 6.66602 18.4864 6.66602 18.0173C6.66602 17.5481 6.98838 17.1777 7.38513 17.1777H27.7436C28.1404 17.1777 28.4627 17.5481 28.4627 18.0173Z" fill="#4B94F0"/>
<path d="M28.1347 17.4824C28.9034 17.4824 29.5234 18.0997 29.5234 18.8652C29.5234 19.6306 28.9034 20.2479 28.1347 20.2479C27.366 20.2479 26.7461 19.6306 26.7461 18.8652C26.7461 18.0997 27.366 17.4824 28.1347 17.4824Z" fill="#FFE62E"/>
<path d="M32.7818 6.74072C32.7818 7.65432 32.0379 8.39507 31.1204 8.39507C30.2029 8.39507 29.459 7.65432 29.459 6.74072H32.7818Z" fill="#FFE62E"/>
</svg>
