<svg width="232" height="40" viewBox="0 0 232 40" fill="none" xmlns="http://www.w3.org/2000/svg">
<path d="M149.775 18.6C149.367 18.6 149.035 18.975 149.035 19.45C149.035 19.925 149.367 20.3 149.775 20.3H150.744C150.897 22.4 152.019 24.275 153.83 25.7C153.983 26.225 154.06 26.8 154.06 27.375C154.06 29.175 153.294 30.5 152.096 31.6H151.433C151.025 31.6 150.693 31.925 150.693 32.3C150.693 32.675 151.025 33 151.433 33H171.862C172.27 33 172.602 32.675 172.602 32.3C172.602 31.925 172.27 31.6 171.862 31.6H171.199C170 30.5 169.235 29.175 169.235 27.375C169.235 27.1 169.312 26.85 169.337 26.6C173.01 26.5 175.968 23.6 176.045 19.975H176.555C176.963 19.975 177.295 19.475 177.295 19.225V5.5C177.677 5.35 177.958 4.925 177.958 4.65V3.75C177.958 3.425 177.55 3 177.065 3H171.403C170.918 3 170.51 3.425 170.51 3.75V4.65C170.51 4.82036 170.618 5.04828 170.791 5.23273V16.875H149.775C149.367 16.875 149.035 17.25 149.035 17.725C149.035 18.2 149.367 18.575 149.775 18.575" stroke="#C5C8CD" stroke-width="1.5"/>
<path d="M172.167 17.25C172.957 17.25 173.595 17.875 173.595 18.65C173.595 19.425 172.957 20.05 172.167 20.05C171.376 20.05 170.738 19.425 170.738 18.65C170.738 17.875 171.376 17.25 172.167 17.25Z" stroke="#C5C8CD" stroke-width="1.5"/>
<path d="M197.775 18.6C197.367 18.6 197.035 18.975 197.035 19.45C197.035 19.925 197.367 20.3 197.775 20.3H198.744C198.897 22.4 200.019 24.275 201.83 25.7C201.983 26.225 202.06 26.8 202.06 27.375C202.06 29.175 201.294 30.5 200.096 31.6H199.433C199.025 31.6 198.693 31.925 198.693 32.3C198.693 32.675 199.025 33 199.433 33H219.862C220.27 33 220.602 32.675 220.602 32.3C220.602 31.925 220.27 31.6 219.862 31.6H219.199C218 30.5 217.235 29.175 217.235 27.375C217.235 27.1 217.312 26.85 217.337 26.6C221.01 26.5 223.968 23.6 224.045 19.975H224.555C224.963 19.975 225.295 19.475 225.295 19.225V5.5C225.677 5.35 225.958 4.925 225.958 4.65V3.75C225.958 3.425 225.55 3 225.065 3H219.403C218.918 3 218.51 3.425 218.51 3.75V4.65C218.51 4.82036 218.618 5.04828 218.791 5.23273V16.875H197.775C197.367 16.875 197.035 17.25 197.035 17.725C197.035 18.2 197.367 18.575 197.775 18.575" stroke="#C5C8CD" stroke-width="1.5"/>
<path d="M220.167 17.25C220.957 17.25 221.595 17.875 221.595 18.65C221.595 19.425 220.957 20.05 220.167 20.05C219.376 20.05 218.738 19.425 218.738 18.65C218.738 17.875 219.376 17.25 220.167 17.25Z" stroke="#C5C8CD" stroke-width="1.5"/>
<path d="M149.775 18.6C149.367 18.6 149.035 18.975 149.035 19.45C149.035 19.925 149.367 20.3 149.775 20.3H150.744C150.897 22.4 152.019 24.275 153.83 25.7C153.983 26.225 154.06 26.8 154.06 27.375C154.06 29.175 153.294 30.5 152.096 31.6H151.433C151.025 31.6 150.693 31.925 150.693 32.3C150.693 32.675 151.025 33 151.433 33H171.862C172.27 33 172.602 32.675 172.602 32.3C172.602 31.925 172.27 31.6 171.862 31.6H171.199C170 30.5 169.235 29.175 169.235 27.375C169.235 27.1 169.312 26.85 169.337 26.6C173.01 26.5 175.968 23.6 176.045 19.975H176.555C176.963 19.975 177.295 19.475 177.295 19.225V5.5C177.677 5.35 177.958 4.925 177.958 4.65V3.75C177.958 3.425 177.55 3 177.065 3H171.403C170.918 3 170.51 3.425 170.51 3.75V4.65C170.51 4.82036 170.618 5.04828 170.791 5.23273V16.875H149.775C149.367 16.875 149.035 17.25 149.035 17.725C149.035 18.2 149.367 18.575 149.775 18.575" stroke="#C5C8CD" stroke-width="1.5"/>
<path d="M172.167 17.25C172.957 17.25 173.595 17.875 173.595 18.65C173.595 19.425 172.957 20.05 172.167 20.05C171.376 20.05 170.738 19.425 170.738 18.65C170.738 17.875 171.376 17.25 172.167 17.25Z" stroke="#C5C8CD" stroke-width="1.5"/>
<path d="M197.775 18.6C197.367 18.6 197.035 18.975 197.035 19.45C197.035 19.925 197.367 20.3 197.775 20.3H198.744C198.897 22.4 200.019 24.275 201.83 25.7C201.983 26.225 202.06 26.8 202.06 27.375C202.06 29.175 201.294 30.5 200.096 31.6H199.433C199.025 31.6 198.693 31.925 198.693 32.3C198.693 32.675 199.025 33 199.433 33H219.862C220.27 33 220.602 32.675 220.602 32.3C220.602 31.925 220.27 31.6 219.862 31.6H219.199C218 30.5 217.235 29.175 217.235 27.375C217.235 27.1 217.312 26.85 217.337 26.6C221.01 26.5 223.968 23.6 224.045 19.975H224.555C224.963 19.975 225.295 19.475 225.295 19.225V5.5C225.677 5.35 225.958 4.925 225.958 4.65V3.75C225.958 3.425 225.55 3 225.065 3H219.403C218.918 3 218.51 3.425 218.51 3.75V4.65C218.51 4.82036 218.618 5.04828 218.791 5.23273V16.875H197.775C197.367 16.875 197.035 17.25 197.035 17.725C197.035 18.2 197.367 18.575 197.775 18.575" stroke="#C5C8CD" stroke-width="1.5"/>
<path d="M220.167 17.25C220.957 17.25 221.595 17.875 221.595 18.65C221.595 19.425 220.957 20.05 220.167 20.05C219.376 20.05 218.738 19.425 218.738 18.65C218.738 17.875 219.376 17.25 220.167 17.25Z" stroke="#C5C8CD" stroke-width="1.5"/>
<path d="M101.775 18.6C101.367 18.6 101.035 18.975 101.035 19.45C101.035 19.925 101.367 20.3 101.775 20.3H102.744C102.897 22.4 104.019 24.275 105.83 25.7C105.983 26.225 106.06 26.8 106.06 27.375C106.06 29.175 105.294 30.5 104.096 31.6H103.433C103.025 31.6 102.693 31.925 102.693 32.3C102.693 32.675 103.025 33 103.433 33H123.862C124.27 33 124.602 32.675 124.602 32.3C124.602 31.925 124.27 31.6 123.862 31.6H123.199C122 30.5 121.235 29.175 121.235 27.375C121.235 27.1 121.312 26.85 121.337 26.6C125.01 26.5 127.968 23.6 128.045 19.975H128.555C128.963 19.975 129.295 19.475 129.295 19.225V5.5C129.677 5.35 129.958 4.925 129.958 4.65V3.75C129.958 3.425 129.55 3 129.065 3H123.403C122.918 3 122.51 3.425 122.51 3.75V4.65C122.51 4.82036 122.618 5.04828 122.791 5.23273V16.875H101.775C101.367 16.875 101.035 17.25 101.035 17.725C101.035 18.2 101.367 18.575 101.775 18.575" stroke="#C5C8CD" stroke-width="1.5"/>
<path d="M124.167 17.25C124.957 17.25 125.595 17.875 125.595 18.65C125.595 19.425 124.957 20.05 124.167 20.05C123.376 20.05 122.738 19.425 122.738 18.65C122.738 17.875 123.376 17.25 124.167 17.25Z" stroke="#C5C8CD" stroke-width="1.5"/>
<path d="M53.7748 18.6C53.3667 18.6 53.0352 18.975 53.0352 19.45C53.0352 19.925 53.3667 20.3 53.7748 20.3H54.744C54.897 22.4 56.0192 24.275 57.8301 25.7C57.9831 26.225 58.0596 26.8 58.0596 27.375C58.0596 29.175 57.2945 30.5 56.0958 31.6H55.4326C55.0245 31.6 54.693 31.925 54.693 32.3C54.693 32.675 55.0245 33 55.4326 33H75.8621C76.2702 33 76.6018 32.675 76.6018 32.3C76.6018 31.925 76.2702 31.6 75.8621 31.6H75.199C74.0003 30.5 73.2351 29.175 73.2351 27.375C73.2351 27.1 73.3116 26.85 73.3371 26.6C77.0099 26.5 79.9684 23.6 80.045 19.975H80.555C80.9631 19.975 81.2947 19.475 81.2947 19.225V5.5C81.6773 5.35 81.9578 4.925 81.9578 4.65V3.75C81.9578 3.425 81.5497 3 81.0651 3H75.403C74.9184 3 74.5104 3.425 74.5104 3.75V4.65C74.5104 4.82036 74.618 5.04828 74.7909 5.23273V16.875H53.7748C53.3667 16.875 53.0352 17.25 53.0352 17.725C53.0352 18.2 53.3667 18.575 53.7748 18.575" stroke="#C5C8CD" stroke-width="1.5"/>
<path d="M76.1666 17.25C76.9572 17.25 77.5948 17.875 77.5948 18.65C77.5948 19.425 76.9572 20.05 76.1666 20.05C75.3759 20.05 74.7383 19.425 74.7383 18.65C74.7383 17.875 75.3759 17.25 76.1666 17.25Z" stroke="#C5C8CD" stroke-width="1.5"/>
<path d="M5.7748 18.6C5.36672 18.6 5.03516 18.975 5.03516 19.45C5.03516 19.925 5.36672 20.3 5.7748 20.3H6.74399C6.89702 22.4 8.01924 24.275 9.8301 25.7C9.98313 26.225 10.0596 26.8 10.0596 27.375C10.0596 29.175 9.29449 30.5 8.09576 31.6H7.43263C7.02455 31.6 6.69298 31.925 6.69298 32.3C6.69298 32.675 7.02455 33 7.43263 33H27.8621C28.2702 33 28.6018 32.675 28.6018 32.3C28.6018 31.925 28.2702 31.6 27.8621 31.6H27.199C26.0003 30.5 25.2351 29.175 25.2351 27.375C25.2351 27.1 25.3116 26.85 25.3371 26.6C29.0099 26.5 31.9684 23.6 32.045 19.975H32.555C32.9631 19.975 33.2947 19.475 33.2947 19.225V5.5C33.6773 5.35 33.9578 4.925 33.9578 4.65V3.75C33.9578 3.425 33.5497 3 33.0651 3H27.403C26.9184 3 26.5104 3.425 26.5104 3.75V4.65C26.5104 4.82036 26.618 5.04828 26.7909 5.23273V16.875H5.7748C5.36672 16.875 5.03516 17.25 5.03516 17.725C5.03516 18.2 5.36672 18.575 5.7748 18.575" stroke="#C5C8CD" stroke-width="1.5"/>
<path d="M28.1666 17.25C28.9572 17.25 29.5948 17.875 29.5948 18.65C29.5948 19.425 28.9572 20.05 28.1666 20.05C27.3759 20.05 26.7383 19.425 26.7383 18.65C26.7383 17.875 27.3759 17.25 28.1666 17.25Z" stroke="#C5C8CD" stroke-width="1.5"/>
</svg>
