<svg width="232" height="40" viewBox="0 0 232 40" fill="none" xmlns="http://www.w3.org/2000/svg">
<path d="M180.203 19.4624V24.6188L180.391 24.6517C181.018 24.6517 181.301 25.1443 181.301 25.9983C181.301 26.1625 181.207 27.2135 181.175 27.4106C181.018 28.1331 180.454 28.0674 179.826 28.0674H177.912C177.661 30.6621 175.559 32.6655 173.017 32.6655C170.475 32.6655 168.404 30.6292 168.122 28.0674H159.179C158.928 30.6621 156.826 32.6655 154.284 32.6655C151.742 32.6655 149.671 30.6292 149.389 28.0674H147.475C146.847 28.0674 146.251 28.1331 146.126 27.4106C146.094 27.2463 146 26.1953 146 25.9983C146 25.1443 146.282 24.6517 146.91 24.6517H147.13L147.726 22.3526L148.322 20.0536C148.448 19.4296 149.138 18.5428 149.765 18.3457C149.765 18.3457 152.307 16.7035 153.562 16.2437C154.158 16.0138 155.476 14.8643 155.759 14.306C156.386 13.1564 158.3 9.14953 158.3 9.14953C158.583 8.59118 159.367 8 160.026 8H172.954C173.613 8 174.272 8.55834 174.398 9.14953L175.684 15.357C175.81 15.9481 176.437 16.605 177.065 16.8021L179.073 17.7874C179.669 17.9844 180.203 18.8384 180.203 19.4624Z" stroke="#C5C8CD" stroke-width="1.5"/>
<path d="M172.772 15.0667H167.711V10.2607H172.024C172.026 10.2652 172.028 10.2689 172.028 10.2715L172.772 15.0667Z" stroke="#C5C8CD" stroke-width="1.5"/>
<path d="M164.547 15.0989H158.536L160.51 10.4348C160.518 10.4219 160.53 10.4066 160.545 10.3899C160.567 10.3647 160.593 10.3418 160.619 10.3236C160.643 10.3067 160.662 10.2974 160.673 10.293H164.547V15.0989Z" stroke="#C5C8CD" stroke-width="1.5"/>
<g clip-path="url(#clip0_845_5737)">
<path d="M228.203 19.4624V24.6188L228.391 24.6517C229.018 24.6517 229.301 25.1443 229.301 25.9983C229.301 26.1625 229.207 27.2135 229.175 27.4106C229.018 28.1331 228.454 28.0674 227.826 28.0674H225.912C225.661 30.6621 223.559 32.6655 221.017 32.6655C218.475 32.6655 216.404 30.6292 216.122 28.0674H207.179C206.928 30.6621 204.826 32.6655 202.284 32.6655C199.742 32.6655 197.671 30.6292 197.389 28.0674H195.475C194.847 28.0674 194.251 28.1331 194.126 27.4106C194.094 27.2463 194 26.1953 194 25.9983C194 25.1443 194.282 24.6517 194.91 24.6517H195.13L195.726 22.3526L196.322 20.0536C196.448 19.4296 197.138 18.5428 197.765 18.3457C197.765 18.3457 200.307 16.7035 201.562 16.2437C202.158 16.0138 203.476 14.8643 203.759 14.306C204.386 13.1564 206.3 9.14953 206.3 9.14953C206.583 8.59118 207.367 8 208.026 8H220.954C221.613 8 222.272 8.55834 222.398 9.14953L223.684 15.357C223.81 15.9481 224.437 16.605 225.065 16.8021L227.073 17.7874C227.669 17.9844 228.203 18.8384 228.203 19.4624Z" stroke="#C5C8CD" stroke-width="1.5"/>
<path d="M220.772 15.0667H215.711V10.2607H220.024C220.026 10.2652 220.028 10.2689 220.028 10.2715L220.772 15.0667Z" stroke="#C5C8CD" stroke-width="1.5"/>
<path d="M212.547 15.0989H206.536L208.51 10.4348C208.518 10.4219 208.53 10.4066 208.545 10.3899C208.567 10.3647 208.593 10.3418 208.619 10.3236C208.643 10.3067 208.662 10.2974 208.673 10.293H212.547V15.0989Z" stroke="#C5C8CD" stroke-width="1.5"/>
<path d="M228.203 19.4624V24.6188L228.391 24.6517C229.018 24.6517 229.301 25.1443 229.301 25.9983C229.301 26.1625 229.207 27.2135 229.175 27.4106C229.018 28.1331 228.454 28.0674 227.826 28.0674H225.912C225.661 30.6621 223.559 32.6655 221.017 32.6655C218.475 32.6655 216.404 30.6292 216.122 28.0674H207.179C206.928 30.6621 204.826 32.6655 202.284 32.6655C199.742 32.6655 197.671 30.6292 197.389 28.0674H195.475C194.847 28.0674 194.251 28.1331 194.126 27.4106C194.094 27.2463 194 26.1953 194 25.9983C194 25.1443 194.282 24.6517 194.91 24.6517H195.13L195.726 22.3526L196.322 20.0536C196.448 19.4296 197.138 18.5428 197.765 18.3457C197.765 18.3457 200.307 16.7035 201.562 16.2437C202.158 16.0138 203.476 14.8643 203.759 14.306C204.386 13.1564 206.3 9.14953 206.3 9.14953C206.583 8.59118 207.367 8 208.026 8H220.954C221.613 8 222.272 8.55834 222.398 9.14953L223.684 15.357C223.81 15.9481 224.437 16.605 225.065 16.8021L227.073 17.7874C227.669 17.9844 228.203 18.8384 228.203 19.4624Z" stroke="#C5C8CD" stroke-width="1.5"/>
<path d="M220.772 15.0667H215.711V10.2607H220.024C220.026 10.2652 220.028 10.2689 220.028 10.2715L220.772 15.0667Z" stroke="#C5C8CD" stroke-width="1.5"/>
<path d="M212.547 15.0989H206.536L208.51 10.4348C208.518 10.4219 208.53 10.4066 208.545 10.3899C208.567 10.3647 208.593 10.3418 208.619 10.3236C208.643 10.3067 208.662 10.2974 208.673 10.293H212.547V15.0989Z" stroke="#C5C8CD" stroke-width="1.5"/>
</g>
<g clip-path="url(#clip1_845_5737)">
<path d="M132.203 19.4624V24.6188L132.391 24.6517C133.018 24.6517 133.301 25.1443 133.301 25.9983C133.301 26.1625 133.207 27.2135 133.175 27.4106C133.018 28.1331 132.454 28.0674 131.826 28.0674H129.912C129.661 30.6621 127.559 32.6655 125.017 32.6655C122.475 32.6655 120.404 30.6292 120.122 28.0674H111.179C110.928 30.6621 108.826 32.6655 106.284 32.6655C103.742 32.6655 101.671 30.6292 101.389 28.0674H99.4748C98.8472 28.0674 98.251 28.1331 98.1255 27.4106C98.0941 27.2463 98 26.1953 98 25.9983C98 25.1443 98.2824 24.6517 98.91 24.6517H99.1296L99.7258 22.3526L100.322 20.0536C100.448 19.4296 101.138 18.5428 101.765 18.3457C101.765 18.3457 104.307 16.7035 105.562 16.2437C106.158 16.0138 107.476 14.8643 107.759 14.306C108.386 13.1564 110.3 9.14953 110.3 9.14953C110.583 8.59118 111.367 8 112.026 8H124.954C125.613 8 126.272 8.55834 126.398 9.14953L127.684 15.357C127.81 15.9481 128.437 16.605 129.065 16.8021L131.073 17.7874C131.669 17.9844 132.203 18.8384 132.203 19.4624Z" stroke="#C5C8CD" stroke-width="1.5"/>
<path d="M124.772 15.0667H119.711V10.2607H124.024C124.026 10.2652 124.028 10.2689 124.028 10.2715L124.772 15.0667Z" stroke="#C5C8CD" stroke-width="1.5"/>
<path d="M116.547 15.0989H110.536L112.51 10.4348C112.518 10.4219 112.53 10.4066 112.545 10.3899C112.567 10.3647 112.593 10.3418 112.619 10.3236C112.643 10.3067 112.662 10.2974 112.673 10.293H116.547V15.0989Z" stroke="#C5C8CD" stroke-width="1.5"/>
<path d="M132.203 19.4624V24.6188L132.391 24.6517C133.018 24.6517 133.301 25.1443 133.301 25.9983C133.301 26.1625 133.207 27.2135 133.175 27.4106C133.018 28.1331 132.454 28.0674 131.826 28.0674H129.912C129.661 30.6621 127.559 32.6655 125.017 32.6655C122.475 32.6655 120.404 30.6292 120.122 28.0674H111.179C110.928 30.6621 108.826 32.6655 106.284 32.6655C103.742 32.6655 101.671 30.6292 101.389 28.0674H99.4748C98.8472 28.0674 98.251 28.1331 98.1255 27.4106C98.0941 27.2463 98 26.1953 98 25.9983C98 25.1443 98.2824 24.6517 98.91 24.6517H99.1296L99.7258 22.3526L100.322 20.0536C100.448 19.4296 101.138 18.5428 101.765 18.3457C101.765 18.3457 104.307 16.7035 105.562 16.2437C106.158 16.0138 107.476 14.8643 107.759 14.306C108.386 13.1564 110.3 9.14953 110.3 9.14953C110.583 8.59118 111.367 8 112.026 8H124.954C125.613 8 126.272 8.55834 126.398 9.14953L127.684 15.357C127.81 15.9481 128.437 16.605 129.065 16.8021L131.073 17.7874C131.669 17.9844 132.203 18.8384 132.203 19.4624Z" stroke="#C5C8CD" stroke-width="1.5"/>
<path d="M124.772 15.0667H119.711V10.2607H124.024C124.026 10.2652 124.028 10.2689 124.028 10.2715L124.772 15.0667Z" stroke="#C5C8CD" stroke-width="1.5"/>
<path d="M116.547 15.0989H110.536L112.51 10.4348C112.518 10.4219 112.53 10.4066 112.545 10.3899C112.567 10.3647 112.593 10.3418 112.619 10.3236C112.643 10.3067 112.662 10.2974 112.673 10.293H116.547V15.0989Z" stroke="#C5C8CD" stroke-width="1.5"/>
</g>
<g clip-path="url(#clip2_845_5737)">
<path d="M84.2025 19.4624V24.6188L84.3908 24.6517C85.0184 24.6517 85.3008 25.1443 85.3008 25.9983C85.3008 26.1625 85.2067 27.2135 85.1753 27.4106C85.0184 28.1331 84.4536 28.0674 83.826 28.0674H81.9119C81.6609 30.6621 79.5585 32.6655 77.0169 32.6655C74.4752 32.6655 72.4042 30.6292 72.1218 28.0674H63.179C62.9279 30.6621 60.8256 32.6655 58.2839 32.6655C55.7423 32.6655 53.6713 30.6292 53.3889 28.0674H51.4748C50.8472 28.0674 50.251 28.1331 50.1255 27.4106C50.0941 27.2463 50 26.1953 50 25.9983C50 25.1443 50.2824 24.6517 50.91 24.6517H51.1296L51.7258 22.3526L52.322 20.0536C52.4475 19.4296 53.1378 18.5428 53.7654 18.3457C53.7654 18.3457 56.3071 16.7035 57.5622 16.2437C58.1584 16.0138 59.4763 14.8643 59.7587 14.306C60.3863 13.1564 62.3004 9.14953 62.3004 9.14953C62.5828 8.59118 63.3672 8 64.0262 8H76.9541C77.6131 8 78.272 8.55834 78.3975 9.14953L79.684 15.357C79.8096 15.9481 80.4371 16.605 81.0647 16.8021L83.0729 17.7874C83.6691 17.9844 84.2025 18.8384 84.2025 19.4624Z" stroke="#C5C8CD" stroke-width="1.5"/>
<path d="M76.772 15.0667H71.7111V10.2607H76.0241C76.0262 10.2652 76.0275 10.2689 76.0283 10.2715L76.772 15.0667Z" stroke="#C5C8CD" stroke-width="1.5"/>
<path d="M68.5466 15.0989H62.5358L64.51 10.4348C64.5185 10.4219 64.5299 10.4066 64.5449 10.3899C64.5674 10.3647 64.5932 10.3418 64.6189 10.3236C64.6429 10.3067 64.6617 10.2974 64.6727 10.293H68.5466V15.0989Z" stroke="#C5C8CD" stroke-width="1.5"/>
<path d="M84.2025 19.4624V24.6188L84.3908 24.6517C85.0184 24.6517 85.3008 25.1443 85.3008 25.9983C85.3008 26.1625 85.2067 27.2135 85.1753 27.4106C85.0184 28.1331 84.4536 28.0674 83.826 28.0674H81.9119C81.6609 30.6621 79.5585 32.6655 77.0169 32.6655C74.4752 32.6655 72.4042 30.6292 72.1218 28.0674H63.179C62.9279 30.6621 60.8256 32.6655 58.2839 32.6655C55.7423 32.6655 53.6713 30.6292 53.3889 28.0674H51.4748C50.8472 28.0674 50.251 28.1331 50.1255 27.4106C50.0941 27.2463 50 26.1953 50 25.9983C50 25.1443 50.2824 24.6517 50.91 24.6517H51.1296L51.7258 22.3526L52.322 20.0536C52.4475 19.4296 53.1378 18.5428 53.7654 18.3457C53.7654 18.3457 56.3071 16.7035 57.5622 16.2437C58.1584 16.0138 59.4763 14.8643 59.7587 14.306C60.3863 13.1564 62.3004 9.14953 62.3004 9.14953C62.5828 8.59118 63.3672 8 64.0262 8H76.9541C77.6131 8 78.272 8.55834 78.3975 9.14953L79.684 15.357C79.8096 15.9481 80.4371 16.605 81.0647 16.8021L83.0729 17.7874C83.6691 17.9844 84.2025 18.8384 84.2025 19.4624Z" stroke="#C5C8CD" stroke-width="1.5"/>
<path d="M76.772 15.0667H71.7111V10.2607H76.0241C76.0262 10.2652 76.0275 10.2689 76.0283 10.2715L76.772 15.0667Z" stroke="#C5C8CD" stroke-width="1.5"/>
<path d="M68.5466 15.0989H62.5358L64.51 10.4348C64.5185 10.4219 64.5299 10.4066 64.5449 10.3899C64.5674 10.3647 64.5932 10.3418 64.6189 10.3236C64.6429 10.3067 64.6617 10.2974 64.6727 10.293H68.5466V15.0989Z" stroke="#C5C8CD" stroke-width="1.5"/>
</g>
<g clip-path="url(#clip3_845_5737)">
<path d="M36.2025 19.4624V24.6188L36.3908 24.6517C37.0184 24.6517 37.3008 25.1443 37.3008 25.9983C37.3008 26.1625 37.2067 27.2135 37.1753 27.4106C37.0184 28.1331 36.4536 28.0674 35.826 28.0674H33.9119C33.6609 30.6621 31.5585 32.6655 29.0169 32.6655C26.4752 32.6655 24.4042 30.6292 24.1218 28.0674H15.179C14.9279 30.6621 12.8256 32.6655 10.2839 32.6655C7.74226 32.6655 5.67128 30.6292 5.38888 28.0674H3.47479C2.84722 28.0674 2.25103 28.1331 2.12551 27.4106C2.09414 27.2463 2 26.1953 2 25.9983C2 25.1443 2.28241 24.6517 2.90998 24.6517H3.12963L3.72582 22.3526L4.32201 20.0536C4.44752 19.4296 5.13785 18.5428 5.76542 18.3457C5.76542 18.3457 8.30708 16.7035 9.56221 16.2437C10.1584 16.0138 11.4763 14.8643 11.7587 14.306C12.3863 13.1564 14.3004 9.14953 14.3004 9.14953C14.5828 8.59118 15.3672 8 16.0262 8H28.9541C29.6131 8 30.272 8.55834 30.3975 9.14953L31.684 15.357C31.8096 15.9481 32.4371 16.605 33.0647 16.8021L35.0729 17.7874C35.6691 17.9844 36.2025 18.8384 36.2025 19.4624Z" stroke="#C5C8CD" stroke-width="1.5"/>
<path d="M28.772 15.0667H23.7111V10.2607H28.0241C28.0262 10.2652 28.0275 10.2689 28.0283 10.2715L28.772 15.0667Z" stroke="#C5C8CD" stroke-width="1.5"/>
<path d="M20.5466 15.0989H14.5358L16.51 10.4348C16.5185 10.4219 16.5299 10.4066 16.5449 10.3899C16.5674 10.3647 16.5932 10.3418 16.6189 10.3236C16.6429 10.3067 16.6617 10.2974 16.6727 10.293H20.5466V15.0989Z" stroke="#C5C8CD" stroke-width="1.5"/>
<path d="M36.2025 19.4624V24.6188L36.3908 24.6517C37.0184 24.6517 37.3008 25.1443 37.3008 25.9983C37.3008 26.1625 37.2067 27.2135 37.1753 27.4106C37.0184 28.1331 36.4536 28.0674 35.826 28.0674H33.9119C33.6609 30.6621 31.5585 32.6655 29.0169 32.6655C26.4752 32.6655 24.4042 30.6292 24.1218 28.0674H15.179C14.9279 30.6621 12.8256 32.6655 10.2839 32.6655C7.74226 32.6655 5.67128 30.6292 5.38888 28.0674H3.47479C2.84722 28.0674 2.25103 28.1331 2.12551 27.4106C2.09414 27.2463 2 26.1953 2 25.9983C2 25.1443 2.28241 24.6517 2.90998 24.6517H3.12963L3.72582 22.3526L4.32201 20.0536C4.44752 19.4296 5.13785 18.5428 5.76542 18.3457C5.76542 18.3457 8.30708 16.7035 9.56221 16.2437C10.1584 16.0138 11.4763 14.8643 11.7587 14.306C12.3863 13.1564 14.3004 9.14953 14.3004 9.14953C14.5828 8.59118 15.3672 8 16.0262 8H28.9541C29.6131 8 30.272 8.55834 30.3975 9.14953L31.684 15.357C31.8096 15.9481 32.4371 16.605 33.0647 16.8021L35.0729 17.7874C35.6691 17.9844 36.2025 18.8384 36.2025 19.4624Z" stroke="#C5C8CD" stroke-width="1.5"/>
<path d="M28.772 15.0667H23.7111V10.2607H28.0241C28.0262 10.2652 28.0275 10.2689 28.0283 10.2715L28.772 15.0667Z" stroke="#C5C8CD" stroke-width="1.5"/>
<path d="M20.5466 15.0989H14.5358L16.51 10.4348C16.5185 10.4219 16.5299 10.4066 16.5449 10.3899C16.5674 10.3647 16.5932 10.3418 16.6189 10.3236C16.6429 10.3067 16.6617 10.2974 16.6727 10.293H20.5466V15.0989Z" stroke="#C5C8CD" stroke-width="1.5"/>
</g>
<defs>
<clipPath id="clip0_845_5737">
<rect width="40" height="40" fill="white" transform="translate(192)"/>
</clipPath>
<clipPath id="clip1_845_5737">
<rect width="40" height="40" fill="white" transform="translate(96)"/>
</clipPath>
<clipPath id="clip2_845_5737">
<rect width="40" height="40" fill="white" transform="translate(48)"/>
</clipPath>
<clipPath id="clip3_845_5737">
<rect width="40" height="40" fill="white"/>
</clipPath>
</defs>
</svg>
