<svg width="232" height="40" viewBox="0 0 232 40" fill="none" xmlns="http://www.w3.org/2000/svg">
<path d="M130.483 18.2416L128.488 17.2441C127.865 17.0447 127.242 16.3797 127.117 15.7813L125.84 9.49762C125.715 8.89918 125.061 8.33398 124.406 8.33398H111.568C110.914 8.33398 110.135 8.93243 109.855 9.49762C109.855 9.49762 107.954 13.5537 107.331 14.7174C107.05 15.2826 105.741 16.4462 105.149 16.679C103.903 17.1444 101.379 18.8067 101.379 18.8067C100.756 19.0062 100.07 19.9039 99.9457 20.5356L100.257 21.7325L99.3225 22.8629L98.7305 25.1901H131.604V19.9704C131.604 19.3387 131.075 18.4743 130.483 18.2748V18.2416Z" fill="#3888EE"/>
<path d="M132.723 26.5203C132.723 25.6559 132.443 25.1572 131.819 25.1572H98.5716C97.9484 25.1572 97.668 25.6559 97.668 26.5203C97.668 26.7198 97.7614 27.7837 97.7926 27.95C97.9172 28.6814 98.5093 28.6149 99.1325 28.6149H131.29C131.913 28.6149 132.474 28.6814 132.629 27.95C132.661 27.7505 132.754 26.6866 132.754 26.5203H132.723Z" fill="#87B8F5"/>
<path d="M118.488 15.8142C118.488 16.1799 118.738 16.4459 119.018 16.4459H124.627C124.907 16.4459 125.094 16.1467 125.063 15.8142L124.284 10.6942C124.222 10.3617 123.941 10.0625 123.661 10.0625H119.049C118.769 10.0625 118.519 10.3617 118.519 10.6942V15.781L118.488 15.8142Z" fill="#3E4347"/>
<path d="M116.829 10.7284C116.829 10.3627 116.58 10.0967 116.299 10.0967H112.217C111.906 10.0967 111.563 10.3627 111.407 10.6619L109.226 15.9149C109.07 16.2141 109.226 16.4801 109.506 16.4801H116.299C116.611 16.4801 116.829 16.1809 116.829 15.8484V10.7616V10.7284Z" fill="#3E4347"/>
<path d="M99.3555 22.8624H101.007C101.256 22.8624 101.568 22.5964 101.661 22.2972L102.004 21.1336C102.098 20.8011 101.973 20.5684 101.692 20.5684H99.9475L99.3555 22.8956V22.8624Z" fill="#FFE62E"/>
<path d="M105.892 22.8633C108.603 22.8633 110.815 25.1906 110.815 28.083C110.815 30.9755 108.603 33.3028 105.892 33.3028C103.181 33.3028 100.969 30.9755 100.969 28.083C100.969 25.1906 103.181 22.8633 105.892 22.8633Z" fill="#5FA0F1"/>
<path d="M108.695 28.083C108.695 29.7454 107.448 31.0753 105.89 31.0753C104.332 31.0753 103.086 29.7454 103.086 28.083C103.086 26.4207 104.332 25.0908 105.89 25.0908C107.448 25.0908 108.695 26.4207 108.695 28.083Z" fill="#E8E8E8"/>
<path d="M108.353 27.6826H103.43V28.414H108.353V27.6826Z" fill="#E8E8E8"/>
<path d="M124.497 22.8633C127.208 22.8633 129.421 25.1906 129.421 28.083C129.421 30.9755 127.208 33.3028 124.497 33.3028C121.787 33.3028 119.574 30.9755 119.574 28.083C119.574 25.1906 121.787 22.8633 124.497 22.8633Z" fill="#5FA0F1"/>
<path d="M127.331 28.083C127.331 29.7454 126.085 31.0753 124.527 31.0753C122.969 31.0753 121.723 29.7454 121.723 28.083C121.723 26.4207 122.969 25.0908 124.527 25.0908C126.085 25.0908 127.331 26.4207 127.331 28.083Z" fill="#E8E8E8"/>
<path d="M126.958 27.6826H122.035V28.414H126.958V27.6826Z" fill="#E8E8E8"/>
<path d="M82.4825 18.2416L80.4883 17.2441C79.8651 17.0447 79.2419 16.3797 79.1172 15.7813L77.8397 9.49762C77.715 8.89918 77.0607 8.33398 76.4063 8.33398H63.5684C62.914 8.33398 62.135 8.93243 61.8546 9.49762C61.8546 9.49762 59.9538 13.5537 59.3306 14.7174C59.0502 15.2826 57.7415 16.4462 57.1494 16.679C55.903 17.1444 53.3791 18.8067 53.3791 18.8067C52.7559 19.0062 52.0703 19.9039 51.9457 20.5356L52.2573 21.7325L51.3225 22.8629L50.7305 25.1901H83.6043V19.9704C83.6043 19.3387 83.0746 18.4743 82.4825 18.2748V18.2416Z" fill="#3888EE"/>
<path d="M84.723 26.5203C84.723 25.6559 84.4425 25.1572 83.8193 25.1572H50.5716C49.9484 25.1572 49.668 25.6559 49.668 26.5203C49.668 26.7198 49.7614 27.7837 49.7926 27.95C49.9172 28.6814 50.5093 28.6149 51.1325 28.6149H83.2896C83.9128 28.6149 84.4737 28.6814 84.6295 27.95C84.6607 27.7505 84.7541 26.6866 84.7541 26.5203H84.723Z" fill="#87B8F5"/>
<path d="M70.4883 15.8142C70.4883 16.1799 70.7376 16.4459 71.018 16.4459H76.6268C76.9072 16.4459 77.0942 16.1467 77.063 15.8142L76.284 10.6942C76.2217 10.3617 75.9413 10.0625 75.6608 10.0625H71.0492C70.7687 10.0625 70.5194 10.3617 70.5194 10.6942V15.781L70.4883 15.8142Z" fill="#3E4347"/>
<path d="M68.8288 10.7284C68.8288 10.3627 68.5796 10.0967 68.2991 10.0967H64.2172C63.9056 10.0967 63.5628 10.3627 63.407 10.6619L61.2258 15.9149C61.07 16.2141 61.2258 16.4801 61.5062 16.4801H68.2991C68.6107 16.4801 68.8288 16.1809 68.8288 15.8484V10.7616V10.7284Z" fill="#3E4347"/>
<path d="M51.3555 22.8624H53.0069C53.2562 22.8624 53.5678 22.5964 53.6613 22.2972L54.0041 21.1336C54.0975 20.8011 53.9729 20.5684 53.6925 20.5684H51.9475L51.3555 22.8956V22.8624Z" fill="#FFE62E"/>
<path d="M57.892 22.8633C60.603 22.8633 62.8153 25.1906 62.8153 28.083C62.8153 30.9755 60.603 33.3028 57.892 33.3028C55.1811 33.3028 52.9688 30.9755 52.9688 28.083C52.9688 25.1906 55.1811 22.8633 57.892 22.8633Z" fill="#5FA0F1"/>
<path d="M60.6947 28.083C60.6947 29.7454 59.4483 31.0753 57.8903 31.0753C56.3323 31.0753 55.0859 29.7454 55.0859 28.083C55.0859 26.4207 56.3323 25.0908 57.8903 25.0908C59.4483 25.0908 60.6947 26.4207 60.6947 28.083Z" fill="#E8E8E8"/>
<path d="M60.353 27.6826H55.4297V28.414H60.353V27.6826Z" fill="#E8E8E8"/>
<path d="M76.4975 22.8633C79.2084 22.8633 81.4208 25.1906 81.4208 28.083C81.4208 30.9755 79.2084 33.3028 76.4975 33.3028C73.7866 33.3028 71.5742 30.9755 71.5742 28.083C71.5742 25.1906 73.7866 22.8633 76.4975 22.8633Z" fill="#5FA0F1"/>
<path d="M79.3315 28.083C79.3315 29.7454 78.0851 31.0753 76.5271 31.0753C74.9691 31.0753 73.7227 29.7454 73.7227 28.083C73.7227 26.4207 74.9691 25.0908 76.5271 25.0908C78.0851 25.0908 79.3315 26.4207 79.3315 28.083Z" fill="#E8E8E8"/>
<path d="M78.9584 27.6826H74.0352V28.414H78.9584V27.6826Z" fill="#E8E8E8"/>
<path d="M34.4825 18.2416L32.4883 17.2441C31.8651 17.0447 31.2419 16.3797 31.1172 15.7813L29.8397 9.49762C29.715 8.89918 29.0607 8.33398 28.4063 8.33398H15.5684C14.914 8.33398 14.135 8.93243 13.8546 9.49762C13.8546 9.49762 11.9538 13.5537 11.3306 14.7174C11.0502 15.2826 9.74147 16.4462 9.14943 16.679C7.90303 17.1444 5.37907 18.8067 5.37907 18.8067C4.75587 19.0062 4.07035 19.9039 3.94571 20.5356L4.25731 21.7325L3.32251 22.8629L2.73047 25.1901H35.6043V19.9704C35.6043 19.3387 35.0746 18.4743 34.4825 18.2748V18.2416Z" fill="#3888EE"/>
<path d="M36.723 26.5203C36.723 25.6559 36.4425 25.1572 35.8193 25.1572H2.57161C1.94841 25.1572 1.66797 25.6559 1.66797 26.5203C1.66797 26.7198 1.76145 27.7837 1.79261 27.95C1.91725 28.6814 2.50929 28.6149 3.13249 28.6149H35.2896C35.9128 28.6149 36.4737 28.6814 36.6295 27.95C36.6607 27.7505 36.7541 26.6866 36.7541 26.5203H36.723Z" fill="#87B8F5"/>
<path d="M22.4883 15.8142C22.4883 16.1799 22.7376 16.4459 23.018 16.4459H28.6268C28.9072 16.4459 29.0942 16.1467 29.063 15.8142L28.284 10.6942C28.2217 10.3617 27.9413 10.0625 27.6608 10.0625H23.0492C22.7687 10.0625 22.5194 10.3617 22.5194 10.6942V15.781L22.4883 15.8142Z" fill="#3E4347"/>
<path d="M20.8288 10.7284C20.8288 10.3627 20.5796 10.0967 20.2991 10.0967H16.2172C15.9056 10.0967 15.5628 10.3627 15.407 10.6619L13.2258 15.9149C13.07 16.2141 13.2258 16.4801 13.5062 16.4801H20.2991C20.6107 16.4801 20.8288 16.1809 20.8288 15.8484V10.7616V10.7284Z" fill="#3E4347"/>
<path d="M3.35547 22.8624H5.00695C5.25623 22.8624 5.56783 22.5964 5.66131 22.2972L6.00407 21.1336C6.09755 20.8011 5.97291 20.5684 5.69247 20.5684H3.94751L3.35547 22.8956V22.8624Z" fill="#FFE62E"/>
<path d="M9.89203 22.8633C12.603 22.8633 14.8153 25.1906 14.8153 28.083C14.8153 30.9755 12.603 33.3028 9.89203 33.3028C7.18111 33.3028 4.96875 30.9755 4.96875 28.083C4.96875 25.1906 7.18111 22.8633 9.89203 22.8633Z" fill="#5FA0F1"/>
<path d="M12.6947 28.083C12.6947 29.7454 11.4483 31.0753 9.89034 31.0753C8.33234 31.0753 7.08594 29.7454 7.08594 28.083C7.08594 26.4207 8.33234 25.0908 9.89034 25.0908C11.4483 25.0908 12.6947 26.4207 12.6947 28.083Z" fill="#E8E8E8"/>
<path d="M12.353 27.6826H7.42969V28.414H12.353V27.6826Z" fill="#E8E8E8"/>
<path d="M28.4975 22.8633C31.2084 22.8633 33.4208 25.1906 33.4208 28.083C33.4208 30.9755 31.2084 33.3028 28.4975 33.3028C25.7866 33.3028 23.5742 30.9755 23.5742 28.083C23.5742 25.1906 25.7866 22.8633 28.4975 22.8633Z" fill="#5FA0F1"/>
<path d="M31.3315 28.083C31.3315 29.7454 30.0851 31.0753 28.5271 31.0753C26.9691 31.0753 25.7227 29.7454 25.7227 28.083C25.7227 26.4207 26.9691 25.0908 28.5271 25.0908C30.0851 25.0908 31.3315 26.4207 31.3315 28.083Z" fill="#E8E8E8"/>
<path d="M30.9584 27.6826H26.0352V28.414H30.9584V27.6826Z" fill="#E8E8E8"/>
<path d="M178.483 18.2416L176.488 17.2441C175.865 17.0447 175.242 16.3797 175.117 15.7813L173.84 9.49762C173.715 8.89918 173.061 8.33398 172.406 8.33398H159.568C158.914 8.33398 158.135 8.93243 157.855 9.49762C157.855 9.49762 155.954 13.5537 155.331 14.7174C155.05 15.2826 153.741 16.4462 153.149 16.679C151.903 17.1444 149.379 18.8067 149.379 18.8067C148.756 19.0062 148.07 19.9039 147.946 20.5356L148.257 21.7325L147.323 22.8629L146.73 25.1901H179.604V19.9704C179.604 19.3387 179.075 18.4743 178.483 18.2748V18.2416Z" fill="#3888EE"/>
<path d="M180.723 26.5203C180.723 25.6559 180.443 25.1572 179.819 25.1572H146.572C145.948 25.1572 145.668 25.6559 145.668 26.5203C145.668 26.7198 145.761 27.7837 145.793 27.95C145.917 28.6814 146.509 28.6149 147.132 28.6149H179.29C179.913 28.6149 180.474 28.6814 180.629 27.95C180.661 27.7505 180.754 26.6866 180.754 26.5203H180.723Z" fill="#87B8F5"/>
<path d="M166.488 15.8142C166.488 16.1799 166.738 16.4459 167.018 16.4459H172.627C172.907 16.4459 173.094 16.1467 173.063 15.8142L172.284 10.6942C172.222 10.3617 171.941 10.0625 171.661 10.0625H167.049C166.769 10.0625 166.519 10.3617 166.519 10.6942V15.781L166.488 15.8142Z" fill="#3E4347"/>
<path d="M164.829 10.7284C164.829 10.3627 164.58 10.0967 164.299 10.0967H160.217C159.906 10.0967 159.563 10.3627 159.407 10.6619L157.226 15.9149C157.07 16.2141 157.226 16.4801 157.506 16.4801H164.299C164.611 16.4801 164.829 16.1809 164.829 15.8484V10.7616V10.7284Z" fill="#3E4347"/>
<path d="M147.355 22.8624H149.007C149.256 22.8624 149.568 22.5964 149.661 22.2972L150.004 21.1336C150.098 20.8011 149.973 20.5684 149.692 20.5684H147.948L147.355 22.8956V22.8624Z" fill="#FFE62E"/>
<path d="M153.892 22.8633C156.603 22.8633 158.815 25.1906 158.815 28.083C158.815 30.9755 156.603 33.3028 153.892 33.3028C151.181 33.3028 148.969 30.9755 148.969 28.083C148.969 25.1906 151.181 22.8633 153.892 22.8633Z" fill="#5FA0F1"/>
<path d="M156.695 28.083C156.695 29.7454 155.448 31.0753 153.89 31.0753C152.332 31.0753 151.086 29.7454 151.086 28.083C151.086 26.4207 152.332 25.0908 153.89 25.0908C155.448 25.0908 156.695 26.4207 156.695 28.083Z" fill="#E8E8E8"/>
<path d="M156.353 27.6826H151.43V28.414H156.353V27.6826Z" fill="#E8E8E8"/>
<path d="M172.497 22.8633C175.208 22.8633 177.421 25.1906 177.421 28.083C177.421 30.9755 175.208 33.3028 172.497 33.3028C169.787 33.3028 167.574 30.9755 167.574 28.083C167.574 25.1906 169.787 22.8633 172.497 22.8633Z" fill="#5FA0F1"/>
<path d="M175.331 28.083C175.331 29.7454 174.085 31.0753 172.527 31.0753C170.969 31.0753 169.723 29.7454 169.723 28.083C169.723 26.4207 170.969 25.0908 172.527 25.0908C174.085 25.0908 175.331 26.4207 175.331 28.083Z" fill="#E8E8E8"/>
<path d="M174.958 27.6826H170.035V28.414H174.958V27.6826Z" fill="#E8E8E8"/>
<path d="M226.483 18.2416L224.488 17.2441C223.865 17.0447 223.242 16.3797 223.117 15.7813L221.84 9.49762C221.715 8.89918 221.061 8.33398 220.406 8.33398H207.568C206.914 8.33398 206.135 8.93243 205.855 9.49762C205.855 9.49762 203.954 13.5537 203.331 14.7174C203.05 15.2826 201.741 16.4462 201.149 16.679C199.903 17.1444 197.379 18.8067 197.379 18.8067C196.756 19.0062 196.07 19.9039 195.946 20.5356L196.257 21.7325L195.323 22.8629L194.73 25.1901H227.604V19.9704C227.604 19.3387 227.075 18.4743 226.483 18.2748V18.2416Z" fill="#3888EE"/>
<path d="M228.723 26.5203C228.723 25.6559 228.443 25.1572 227.819 25.1572H194.572C193.948 25.1572 193.668 25.6559 193.668 26.5203C193.668 26.7198 193.761 27.7837 193.793 27.95C193.917 28.6814 194.509 28.6149 195.132 28.6149H227.29C227.913 28.6149 228.474 28.6814 228.629 27.95C228.661 27.7505 228.754 26.6866 228.754 26.5203H228.723Z" fill="#87B8F5"/>
<path d="M214.488 15.8142C214.488 16.1799 214.738 16.4459 215.018 16.4459H220.627C220.907 16.4459 221.094 16.1467 221.063 15.8142L220.284 10.6942C220.222 10.3617 219.941 10.0625 219.661 10.0625H215.049C214.769 10.0625 214.519 10.3617 214.519 10.6942V15.781L214.488 15.8142Z" fill="#3E4347"/>
<path d="M212.829 10.7284C212.829 10.3627 212.58 10.0967 212.299 10.0967H208.217C207.906 10.0967 207.563 10.3627 207.407 10.6619L205.226 15.9149C205.07 16.2141 205.226 16.4801 205.506 16.4801H212.299C212.611 16.4801 212.829 16.1809 212.829 15.8484V10.7616V10.7284Z" fill="#3E4347"/>
<path d="M195.355 22.8624H197.007C197.256 22.8624 197.568 22.5964 197.661 22.2972L198.004 21.1336C198.098 20.8011 197.973 20.5684 197.692 20.5684H195.948L195.355 22.8956V22.8624Z" fill="#FFE62E"/>
<path d="M201.892 22.8633C204.603 22.8633 206.815 25.1906 206.815 28.083C206.815 30.9755 204.603 33.3028 201.892 33.3028C199.181 33.3028 196.969 30.9755 196.969 28.083C196.969 25.1906 199.181 22.8633 201.892 22.8633Z" fill="#5FA0F1"/>
<path d="M204.695 28.083C204.695 29.7454 203.448 31.0753 201.89 31.0753C200.332 31.0753 199.086 29.7454 199.086 28.083C199.086 26.4207 200.332 25.0908 201.89 25.0908C203.448 25.0908 204.695 26.4207 204.695 28.083Z" fill="#E8E8E8"/>
<path d="M204.353 27.6826H199.43V28.414H204.353V27.6826Z" fill="#E8E8E8"/>
<path d="M220.497 22.8633C223.208 22.8633 225.421 25.1906 225.421 28.083C225.421 30.9755 223.208 33.3028 220.497 33.3028C217.787 33.3028 215.574 30.9755 215.574 28.083C215.574 25.1906 217.787 22.8633 220.497 22.8633Z" fill="#5FA0F1"/>
<path d="M223.331 28.083C223.331 29.7454 222.085 31.0753 220.527 31.0753C218.969 31.0753 217.723 29.7454 217.723 28.083C217.723 26.4207 218.969 25.0908 220.527 25.0908C222.085 25.0908 223.331 26.4207 223.331 28.083Z" fill="#E8E8E8"/>
<path d="M222.958 27.6826H218.035V28.414H222.958V27.6826Z" fill="#E8E8E8"/>
</svg>
