<svg width="232" height="40" viewBox="0 0 232 40" fill="none" xmlns="http://www.w3.org/2000/svg">
<path d="M31.9284 19.9268C31.9284 23.6305 28.9032 26.6429 25.1836 26.6429V19.9268H31.9284Z" fill="#4B94F0"/>
<path d="M32.4015 4.86523H27.8636C27.4669 4.86523 27.1445 5.21092 27.1445 5.45784V19.31C27.1445 19.5569 27.4669 20.0507 27.8636 20.0507H32.4015C32.7983 20.0507 33.1206 19.5569 33.1206 19.31V5.48253C33.1206 5.23561 32.7983 4.88993 32.4015 4.88993V4.86523Z" fill="#87B8F5"/>
<path d="M32.8651 3.33398H27.3601C26.8889 3.33398 26.4922 3.75375 26.4922 4.07474V4.96364C26.4922 5.28464 26.8889 5.85255 27.3601 5.85255H32.8651C33.3362 5.85255 33.733 5.25995 33.733 4.96364V4.07474C33.733 3.75375 33.3362 3.33398 32.8651 3.33398Z" fill="#73ACF3"/>
<path d="M25.2814 27.4079C25.2814 26.2474 25.579 25.1609 26.0997 24.2227H9.7088C10.2295 25.1609 10.5271 26.2474 10.5271 27.4079C10.5271 29.5808 9.46083 31.0623 7.82422 32.2722H27.9843C26.3477 31.0623 25.2814 29.5808 25.2814 27.4079Z" fill="#73ACF3"/>
<path d="M28.5312 32.2734C28.5312 32.6438 28.2089 32.9648 27.8121 32.9648H7.94959C7.55283 32.9648 7.23047 32.6438 7.23047 32.2734C7.23047 31.903 7.55283 31.582 7.94959 31.582H27.8121C28.2089 31.582 28.5312 31.903 28.5312 32.2734Z" fill="#73ACF3"/>
<path d="M17.9114 28.2479C23.7883 28.2479 28.5494 24.5194 28.5494 19.9268H7.27344C7.27344 24.5194 12.0345 28.2479 17.9114 28.2479Z" fill="#87B8F5"/>
<path d="M27.4647 19.5807C27.4647 20.0499 27.1423 20.4203 26.7456 20.4203H6.38709C5.99033 20.4203 5.66797 20.0499 5.66797 19.5807C5.66797 19.1116 5.99033 18.7412 6.38709 18.7412H26.7456C27.1423 18.7412 27.4647 19.1116 27.4647 19.5807Z" fill="#73ACF3"/>
<path d="M27.4647 18.0173C27.4647 18.4864 27.1423 18.8568 26.7456 18.8568H6.38709C5.99033 18.8568 5.66797 18.4864 5.66797 18.0173C5.66797 17.5481 5.99033 17.1777 6.38709 17.1777H26.7456C27.1423 17.1777 27.4647 17.5481 27.4647 18.0173Z" fill="#4B94F0"/>
<path d="M27.1386 17.4824C27.9074 17.4824 28.5273 18.0997 28.5273 18.8652C28.5273 19.6306 27.9074 20.2479 27.1386 20.2479C26.3699 20.2479 25.75 19.6306 25.75 18.8652C25.75 18.0997 26.3699 17.4824 27.1386 17.4824Z" fill="#FFE62E"/>
<path d="M31.7838 6.74121C31.7838 7.65481 31.0398 8.39556 30.1223 8.39556C29.2049 8.39556 28.4609 7.65481 28.4609 6.74121H31.7838Z" fill="#FFE62E"/>
<path d="M79.9284 19.9268C79.9284 23.6305 76.9032 26.6429 73.1836 26.6429V19.9268H79.9284Z" fill="#4B94F0"/>
<path d="M80.4015 4.86523H75.8636C75.4669 4.86523 75.1445 5.21092 75.1445 5.45784V19.31C75.1445 19.5569 75.4669 20.0507 75.8636 20.0507H80.4015C80.7983 20.0507 81.1206 19.5569 81.1206 19.31V5.48253C81.1206 5.23561 80.7983 4.88993 80.4015 4.88993V4.86523Z" fill="#87B8F5"/>
<path d="M80.8651 3.33398H75.3601C74.8889 3.33398 74.4922 3.75375 74.4922 4.07474V4.96364C74.4922 5.28464 74.8889 5.85255 75.3601 5.85255H80.8651C81.3362 5.85255 81.733 5.25995 81.733 4.96364V4.07474C81.733 3.75375 81.3362 3.33398 80.8651 3.33398Z" fill="#73ACF3"/>
<path d="M73.2814 27.4079C73.2814 26.2474 73.579 25.1609 74.0997 24.2227H57.7088C58.2295 25.1609 58.5271 26.2474 58.5271 27.4079C58.5271 29.5808 57.4608 31.0623 55.8242 32.2722H75.9843C74.3477 31.0623 73.2814 29.5808 73.2814 27.4079Z" fill="#73ACF3"/>
<path d="M76.5312 32.2734C76.5312 32.6438 76.2089 32.9648 75.8121 32.9648H55.9496C55.5528 32.9648 55.2305 32.6438 55.2305 32.2734C55.2305 31.903 55.5528 31.582 55.9496 31.582H75.8121C76.2089 31.582 76.5312 31.903 76.5312 32.2734Z" fill="#73ACF3"/>
<path d="M65.9114 28.2479C71.7883 28.2479 76.5494 24.5194 76.5494 19.9268H55.2734C55.2734 24.5194 60.0345 28.2479 65.9114 28.2479Z" fill="#87B8F5"/>
<path d="M75.4647 19.5807C75.4647 20.0499 75.1423 20.4203 74.7456 20.4203H54.3871C53.9903 20.4203 53.668 20.0499 53.668 19.5807C53.668 19.1116 53.9903 18.7412 54.3871 18.7412H74.7456C75.1423 18.7412 75.4647 19.1116 75.4647 19.5807Z" fill="#73ACF3"/>
<path d="M75.4647 18.0173C75.4647 18.4864 75.1423 18.8568 74.7456 18.8568H54.3871C53.9903 18.8568 53.668 18.4864 53.668 18.0173C53.668 17.5481 53.9903 17.1777 54.3871 17.1777H74.7456C75.1423 17.1777 75.4647 17.5481 75.4647 18.0173Z" fill="#4B94F0"/>
<path d="M75.1386 17.4824C75.9074 17.4824 76.5273 18.0997 76.5273 18.8652C76.5273 19.6306 75.9074 20.2479 75.1386 20.2479C74.3699 20.2479 73.75 19.6306 73.75 18.8652C73.75 18.0997 74.3699 17.4824 75.1386 17.4824Z" fill="#FFE62E"/>
<path d="M79.7838 6.74121C79.7838 7.65481 79.0398 8.39556 78.1223 8.39556C77.2049 8.39556 76.4609 7.65481 76.4609 6.74121H79.7838Z" fill="#FFE62E"/>
<path d="M127.928 19.9268C127.928 23.6305 124.903 26.6429 121.184 26.6429V19.9268H127.928Z" fill="#4B94F0"/>
<path d="M128.402 4.86523H123.864C123.467 4.86523 123.145 5.21092 123.145 5.45784V19.31C123.145 19.5569 123.467 20.0507 123.864 20.0507H128.402C128.798 20.0507 129.121 19.5569 129.121 19.31V5.48253C129.121 5.23561 128.798 4.88993 128.402 4.88993V4.86523Z" fill="#87B8F5"/>
<path d="M128.865 3.33398H123.36C122.889 3.33398 122.492 3.75375 122.492 4.07474V4.96364C122.492 5.28464 122.889 5.85255 123.36 5.85255H128.865C129.336 5.85255 129.733 5.25995 129.733 4.96364V4.07474C129.733 3.75375 129.336 3.33398 128.865 3.33398Z" fill="#73ACF3"/>
<path d="M121.281 27.4079C121.281 26.2474 121.579 25.1609 122.1 24.2227H105.709C106.23 25.1609 106.527 26.2474 106.527 27.4079C106.527 29.5808 105.461 31.0623 103.824 32.2722H123.984C122.348 31.0623 121.281 29.5808 121.281 27.4079Z" fill="#73ACF3"/>
<path d="M124.531 32.2734C124.531 32.6438 124.209 32.9648 123.812 32.9648H103.95C103.553 32.9648 103.23 32.6438 103.23 32.2734C103.23 31.903 103.553 31.582 103.95 31.582H123.812C124.209 31.582 124.531 31.903 124.531 32.2734Z" fill="#73ACF3"/>
<path d="M113.911 28.2479C119.788 28.2479 124.549 24.5194 124.549 19.9268H103.273C103.273 24.5194 108.034 28.2479 113.911 28.2479Z" fill="#87B8F5"/>
<path d="M123.465 19.5807C123.465 20.0499 123.142 20.4203 122.746 20.4203H102.387C101.99 20.4203 101.668 20.0499 101.668 19.5807C101.668 19.1116 101.99 18.7412 102.387 18.7412H122.746C123.142 18.7412 123.465 19.1116 123.465 19.5807Z" fill="#73ACF3"/>
<path d="M123.465 18.0173C123.465 18.4864 123.142 18.8568 122.746 18.8568H102.387C101.99 18.8568 101.668 18.4864 101.668 18.0173C101.668 17.5481 101.99 17.1777 102.387 17.1777H122.746C123.142 17.1777 123.465 17.5481 123.465 18.0173Z" fill="#4B94F0"/>
<path d="M123.139 17.4824C123.907 17.4824 124.527 18.0997 124.527 18.8652C124.527 19.6306 123.907 20.2479 123.139 20.2479C122.37 20.2479 121.75 19.6306 121.75 18.8652C121.75 18.0997 122.37 17.4824 123.139 17.4824Z" fill="#FFE62E"/>
<path d="M127.784 6.74121C127.784 7.65481 127.04 8.39556 126.122 8.39556C125.205 8.39556 124.461 7.65481 124.461 6.74121H127.784Z" fill="#FFE62E"/>
<path d="M175.928 19.9268C175.928 23.6305 172.903 26.6429 169.184 26.6429V19.9268H175.928Z" fill="#4B94F0"/>
<path d="M176.402 4.86523H171.864C171.467 4.86523 171.145 5.21092 171.145 5.45784V19.31C171.145 19.5569 171.467 20.0507 171.864 20.0507H176.402C176.798 20.0507 177.121 19.5569 177.121 19.31V5.48253C177.121 5.23561 176.798 4.88993 176.402 4.88993V4.86523Z" fill="#87B8F5"/>
<path d="M176.865 3.33398H171.36C170.889 3.33398 170.492 3.75375 170.492 4.07474V4.96364C170.492 5.28464 170.889 5.85255 171.36 5.85255H176.865C177.336 5.85255 177.733 5.25995 177.733 4.96364V4.07474C177.733 3.75375 177.336 3.33398 176.865 3.33398Z" fill="#73ACF3"/>
<path d="M169.281 27.4079C169.281 26.2474 169.579 25.1609 170.1 24.2227H153.709C154.23 25.1609 154.527 26.2474 154.527 27.4079C154.527 29.5808 153.461 31.0623 151.824 32.2722H171.984C170.348 31.0623 169.281 29.5808 169.281 27.4079Z" fill="#73ACF3"/>
<path d="M172.531 32.2734C172.531 32.6438 172.209 32.9648 171.812 32.9648H151.95C151.553 32.9648 151.23 32.6438 151.23 32.2734C151.23 31.903 151.553 31.582 151.95 31.582H171.812C172.209 31.582 172.531 31.903 172.531 32.2734Z" fill="#73ACF3"/>
<path d="M161.911 28.2479C167.788 28.2479 172.549 24.5194 172.549 19.9268H151.273C151.273 24.5194 156.034 28.2479 161.911 28.2479Z" fill="#87B8F5"/>
<path d="M171.465 19.5807C171.465 20.0499 171.142 20.4203 170.746 20.4203H150.387C149.99 20.4203 149.668 20.0499 149.668 19.5807C149.668 19.1116 149.99 18.7412 150.387 18.7412H170.746C171.142 18.7412 171.465 19.1116 171.465 19.5807Z" fill="#73ACF3"/>
<path d="M171.465 18.0173C171.465 18.4864 171.142 18.8568 170.746 18.8568H150.387C149.99 18.8568 149.668 18.4864 149.668 18.0173C149.668 17.5481 149.99 17.1777 150.387 17.1777H170.746C171.142 17.1777 171.465 17.5481 171.465 18.0173Z" fill="#4B94F0"/>
<path d="M171.139 17.4824C171.907 17.4824 172.527 18.0997 172.527 18.8652C172.527 19.6306 171.907 20.2479 171.139 20.2479C170.37 20.2479 169.75 19.6306 169.75 18.8652C169.75 18.0997 170.37 17.4824 171.139 17.4824Z" fill="#FFE62E"/>
<path d="M175.784 6.74121C175.784 7.65481 175.04 8.39556 174.122 8.39556C173.205 8.39556 172.461 7.65481 172.461 6.74121H175.784Z" fill="#FFE62E"/>
<path d="M223.928 19.9268C223.928 23.6305 220.903 26.6429 217.184 26.6429V19.9268H223.928Z" fill="#4B94F0"/>
<path d="M224.402 4.86523H219.864C219.467 4.86523 219.145 5.21092 219.145 5.45784V19.31C219.145 19.5569 219.467 20.0507 219.864 20.0507H224.402C224.798 20.0507 225.121 19.5569 225.121 19.31V5.48253C225.121 5.23561 224.798 4.88993 224.402 4.88993V4.86523Z" fill="#87B8F5"/>
<path d="M224.865 3.33398H219.36C218.889 3.33398 218.492 3.75375 218.492 4.07474V4.96364C218.492 5.28464 218.889 5.85255 219.36 5.85255H224.865C225.336 5.85255 225.733 5.25995 225.733 4.96364V4.07474C225.733 3.75375 225.336 3.33398 224.865 3.33398Z" fill="#73ACF3"/>
<path d="M217.281 27.4079C217.281 26.2474 217.579 25.1609 218.1 24.2227H201.709C202.23 25.1609 202.527 26.2474 202.527 27.4079C202.527 29.5808 201.461 31.0623 199.824 32.2722H219.984C218.348 31.0623 217.281 29.5808 217.281 27.4079Z" fill="#73ACF3"/>
<path d="M220.531 32.2734C220.531 32.6438 220.209 32.9648 219.812 32.9648H199.95C199.553 32.9648 199.23 32.6438 199.23 32.2734C199.23 31.903 199.553 31.582 199.95 31.582H219.812C220.209 31.582 220.531 31.903 220.531 32.2734Z" fill="#73ACF3"/>
<path d="M209.911 28.2479C215.788 28.2479 220.549 24.5194 220.549 19.9268H199.273C199.273 24.5194 204.034 28.2479 209.911 28.2479Z" fill="#87B8F5"/>
<path d="M219.465 19.5807C219.465 20.0499 219.142 20.4203 218.746 20.4203H198.387C197.99 20.4203 197.668 20.0499 197.668 19.5807C197.668 19.1116 197.99 18.7412 198.387 18.7412H218.746C219.142 18.7412 219.465 19.1116 219.465 19.5807Z" fill="#73ACF3"/>
<path d="M219.465 18.0173C219.465 18.4864 219.142 18.8568 218.746 18.8568H198.387C197.99 18.8568 197.668 18.4864 197.668 18.0173C197.668 17.5481 197.99 17.1777 198.387 17.1777H218.746C219.142 17.1777 219.465 17.5481 219.465 18.0173Z" fill="#4B94F0"/>
<path d="M219.139 17.4824C219.907 17.4824 220.527 18.0997 220.527 18.8652C220.527 19.6306 219.907 20.2479 219.139 20.2479C218.37 20.2479 217.75 19.6306 217.75 18.8652C217.75 18.0997 218.37 17.4824 219.139 17.4824Z" fill="#FFE62E"/>
<path d="M223.784 6.74121C223.784 7.65481 223.04 8.39556 222.122 8.39556C221.205 8.39556 220.461 7.65481 220.461 6.74121H223.784Z" fill="#FFE62E"/>
</svg>
