<svg width="24" height="24" viewBox="0 0 24 24" fill="none" xmlns="http://www.w3.org/2000/svg">
<path d="M20.6889 10.9445L19.4924 10.3461C19.1185 10.2264 18.7445 9.82745 18.6698 9.46838L17.9032 5.69818C17.8284 5.33912 17.4358 5 17.0432 5H9.34045C8.94783 5 8.48043 5.35907 8.31217 5.69818C8.31217 5.69818 7.17171 8.13186 6.79779 8.83004C6.62953 9.16916 5.8443 9.86734 5.48907 10.007C4.74123 10.2863 3.22686 11.2837 3.22686 11.2837C2.85294 11.4033 2.44162 11.9419 2.36684 12.321L2.5538 13.0391L1.99292 13.7173L1.6377 15.1137H21.362V11.9818C21.362 11.6028 21.0441 11.0842 20.6889 10.9645V10.9445Z" fill="#3888EE"/>
<path d="M22.034 15.9121C22.034 15.3935 21.8657 15.0942 21.4918 15.0942H1.54316C1.16924 15.0942 1.00098 15.3935 1.00098 15.9121C1.00098 16.0318 1.05706 16.6701 1.07576 16.7699C1.15054 17.2087 1.50577 17.1688 1.87969 17.1688H21.174C21.5479 17.1688 21.8844 17.2087 21.9779 16.7699C21.9966 16.6502 22.0527 16.0119 22.0527 15.9121H22.034Z" fill="#87B8F5"/>
<path d="M13.4932 9.48814C13.4932 9.70756 13.6427 9.86715 13.811 9.86715H17.1763C17.3445 9.86715 17.4567 9.68762 17.438 9.48814L16.9706 6.41612C16.9332 6.21664 16.765 6.03711 16.5967 6.03711H13.8297C13.6614 6.03711 13.5119 6.21664 13.5119 6.41612V9.46819L13.4932 9.48814Z" fill="#3E4347"/>
<path d="M12.4983 6.43639C12.4983 6.21696 12.3487 6.05737 12.1804 6.05737H9.73127C9.54431 6.05737 9.33865 6.21696 9.24517 6.39649L7.93646 9.5483C7.84298 9.72783 7.93645 9.88741 8.10472 9.88741H12.1804C12.3674 9.88741 12.4983 9.70788 12.4983 9.5084V6.45634V6.43639Z" fill="#3E4347"/>
<path d="M2.0127 13.717H3.00358C3.15315 13.717 3.34011 13.5574 3.3962 13.3779L3.60186 12.6797C3.65794 12.4802 3.58316 12.3406 3.4149 12.3406H2.36792L2.0127 13.7369V13.717Z" fill="#FFE62E"/>
<path d="M5.93541 13.7175C7.56197 13.7175 8.88938 15.1139 8.88938 16.8494C8.88938 18.5849 7.56197 19.9812 5.93541 19.9812C4.30886 19.9812 2.98145 18.5849 2.98145 16.8494C2.98145 15.1139 4.30886 13.7175 5.93541 13.7175Z" fill="#5FA0F1"/>
<path d="M7.61626 16.8493C7.61626 17.8467 6.86842 18.6446 5.93362 18.6446C4.99882 18.6446 4.25098 17.8467 4.25098 16.8493C4.25098 15.8519 4.99882 15.054 5.93362 15.054C6.86842 15.054 7.61626 15.8519 7.61626 16.8493Z" fill="#E8E8E8"/>
<path d="M7.41198 16.6094H4.45801V17.0482H7.41198V16.6094Z" fill="#E8E8E8"/>
<path d="M17.0995 13.7175C18.726 13.7175 20.0534 15.1139 20.0534 16.8494C20.0534 18.5849 18.726 19.9812 17.0995 19.9812C15.4729 19.9812 14.1455 18.5849 14.1455 16.8494C14.1455 15.1139 15.4729 13.7175 17.0995 13.7175Z" fill="#5FA0F1"/>
<path d="M18.7999 16.8493C18.7999 17.8467 18.052 18.6446 17.1172 18.6446C16.1824 18.6446 15.4346 17.8467 15.4346 16.8493C15.4346 15.8519 16.1824 15.054 17.1172 15.054C18.052 15.054 18.7999 15.8519 18.7999 16.8493Z" fill="#E8E8E8"/>
<path d="M18.576 16.6094H15.6221V17.0482H18.576V16.6094Z" fill="#E8E8E8"/>
</svg>
