<svg width="64" height="64" viewBox="0 0 64 64" fill="none" xmlns="http://www.w3.org/2000/svg">
<rect x="0.5" y="0.5" width="63" height="63" rx="7.5" fill="#F7F8F9" stroke="#E7E7E7"/>
<circle cx="32.0016" cy="32.7999" r="2.4" stroke="#C5C8CD" stroke-width="1.5"/>
<path d="M30.2222 39.1998H33.7778C36.2746 39.1998 37.523 39.1998 38.4198 38.6115C38.808 38.3568 39.1414 38.0295 39.4008 37.6483C40 36.7679 40 35.5421 40 33.0907C40 30.6393 40 29.4136 39.4008 28.5331C39.1414 28.1519 38.808 27.8246 38.4198 27.5699C37.8436 27.1919 37.1221 27.0568 36.0176 27.0085C35.4905 27.0085 35.0367 26.6163 34.9333 26.1089C34.7783 25.3477 34.0976 24.7998 33.3069 24.7998H30.6931C29.9024 24.7998 29.2217 25.3477 29.0667 26.1089C28.9633 26.6163 28.5095 27.0085 27.9824 27.0085C26.8779 27.0568 26.1564 27.1919 25.5802 27.5699C25.192 27.8246 24.8586 28.1519 24.5992 28.5331C24 29.4136 24 30.6393 24 33.0907C24 35.5421 24 36.7679 24.5992 37.6483C24.8586 38.0295 25.192 38.3568 25.5802 38.6115C26.477 39.1998 27.7254 39.1998 30.2222 39.1998Z" stroke="#C5C8CD" stroke-width="1.5"/>
<path d="M37.6008 30.3999H36.8008" stroke="#C5C8CD" stroke-width="1.5" stroke-linecap="round"/>
</svg>
