<svg width="340" height="71" viewBox="0 0 340 71" fill="none" xmlns="http://www.w3.org/2000/svg">
<path d="M17.8195 62.64H10.6395V59.2C13.9395 58.88 16.2595 57.06 16.2595 54.38C16.2595 51.42 13.4395 49.54 9.61945 49.54C5.77945 49.54 2.97945 51.42 2.97945 54.38C2.97945 57.08 5.27945 58.86 8.57945 59.18V62.64H1.45945V64.32H17.8195V62.64ZM4.97945 54.38C4.97945 52.4 6.91945 51.18 9.61945 51.18C12.2995 51.18 14.2395 52.4 14.2395 54.38C14.2395 56.36 12.2995 57.58 9.61945 57.58C6.91945 57.58 4.97945 56.36 4.97945 54.38ZM35.3179 54.12V52.46H24.9979V48.7H22.9579V54.12H35.3179ZM37.2179 55.64H20.8379V57.3H37.2179V55.64ZM24.8979 64.72V63.16H35.1979V58.68H22.7979V60.26H33.1379V61.68H22.8379V66.32H35.7579V64.72H24.8979ZM62.389 52.76H59.829V48.44H57.769V58.56H59.829V54.46H62.389V52.76ZM45.649 57.32L46.429 58.98C51.789 57.54 54.909 54.24 54.909 49.56H46.509V51.22H52.649C52.329 53.96 49.969 56.2 45.649 57.32ZM58.489 60.34V59.26H56.469V60.34C56.469 61.72 55.729 63.42 54.129 64.54C52.549 63.52 51.829 61.88 51.829 60.34V59.26H49.829V60.34C49.829 62.16 48.649 64 46.349 64.86L47.369 66.36C49.049 65.74 50.189 64.56 50.809 63.12C51.369 64.64 52.449 65.88 54.149 66.54C55.829 65.84 56.869 64.52 57.449 63.08C58.069 64.6 59.189 65.74 60.949 66.36L61.989 64.86C59.649 64.06 58.489 62.26 58.489 60.34ZM78.0274 53.36H73.2874V55.02H78.0274V61.64H80.0874V48.48H78.0274V53.36ZM75.5074 58.54L75.3074 56.9C73.0674 57.28 71.1674 57.44 68.2274 57.44V51.52H74.3874V49.86H66.1674V59.12H67.5674C70.9474 59.12 73.0674 59.02 75.5074 58.54ZM80.5474 64.6H70.4274V60.64H68.3674V66.26H80.5474V64.6ZM104.879 48.46H102.819V59.3H104.879V48.46ZM99.9385 58.3L100.959 56.68C98.1585 55.76 96.5785 53.5 96.5785 51.06V49.3H94.4785V51.06C94.4785 53.58 92.8785 56.04 90.0385 57L91.0585 58.62C93.2185 57.88 94.7385 56.36 95.5585 54.36C96.3585 56.2 97.8585 57.58 99.9385 58.3ZM92.6985 60.16V61.82H102.819V66.54H104.879V60.16H92.6985ZM126.057 52.98H123.537V48.48H121.437V59.08H123.537V54.68H126.057V52.98ZM119.977 57.28L119.757 55.6C117.557 56.08 115.617 56.2 112.157 56.2V51.46H118.137V49.78H110.097V57.88H111.557C115.477 57.88 117.617 57.76 119.977 57.28ZM117.677 59.44C113.977 59.44 111.657 60.78 111.657 62.98C111.657 65.2 113.977 66.56 117.677 66.56C121.377 66.56 123.697 65.2 123.697 62.98C123.697 60.78 121.377 59.44 117.677 59.44ZM117.677 64.88C115.177 64.88 113.697 64.2 113.697 62.98C113.697 61.76 115.177 61.1 117.677 61.1C120.177 61.1 121.657 61.76 121.657 62.98C121.657 64.2 120.177 64.88 117.677 64.88ZM136.955 54.98C141.095 54.98 143.395 53.88 143.395 51.88C143.395 49.86 141.095 48.76 136.955 48.76C132.795 48.76 130.515 49.86 130.515 51.88C130.515 53.88 132.795 54.98 136.955 54.98ZM136.955 50.3C139.775 50.3 141.255 50.84 141.255 51.88C141.255 52.9 139.775 53.44 136.955 53.44C134.135 53.44 132.655 52.9 132.655 51.88C132.655 50.84 134.135 50.3 136.955 50.3ZM145.135 56.04H128.775V57.68H145.135V56.04ZM132.795 64.8V63.3H143.075V58.98H130.715V60.54H141.055V61.84H130.755V66.38H143.595V64.8H132.795ZM271.511 48.48H269.551V55.96H267.631V48.86H265.711V65.7H267.631V57.66H269.551V66.54H271.511V48.48ZM261.551 51.42V49H259.511V51.42H256.091V53.08H264.931V51.42H261.551ZM260.531 54.1C258.231 54.1 256.611 55.8 256.611 58.3C256.611 60.78 258.231 62.5 260.531 62.5C262.831 62.5 264.451 60.78 264.451 58.3C264.451 55.8 262.831 54.1 260.531 54.1ZM260.531 60.78C259.311 60.78 258.451 59.82 258.451 58.3C258.451 56.78 259.311 55.8 260.531 55.8C261.751 55.8 262.611 56.78 262.611 58.3C262.611 59.82 261.751 60.78 260.531 60.78ZM276.43 55.7L277.17 57.32C280.15 56.86 282.57 55.4 283.69 53.4C284.83 55.42 287.25 56.84 290.23 57.32L290.97 55.7C287.55 55.22 284.97 53.3 284.87 51.16H290.33V49.5H277.03V51.16H282.53C282.43 53.3 279.85 55.22 276.43 55.7ZM291.85 60.3L291.87 58.64H275.53V60.3H282.61V66.56H284.67V60.3H291.85ZM310.348 48.48H308.388V66.54H310.348V48.48ZM304.708 48.82V54.8H302.048V56.48H304.708V65.7H306.648V48.82H304.708ZM300.468 53.3V50.14H298.468V53.4C298.468 56.48 297.228 59.7 294.668 61.24L295.928 62.8C297.688 61.74 298.848 59.88 299.488 57.62C300.108 59.64 301.148 61.38 302.828 62.4L303.988 60.8C301.568 59.24 300.468 56.24 300.468 53.3ZM330.687 62.64H326.827V57.94C328.267 57.12 329.127 55.84 329.127 54.24C329.127 51.36 326.327 49.52 322.487 49.52C318.627 49.52 315.847 51.36 315.847 54.24C315.847 55.84 316.707 57.14 318.147 57.94V62.64H314.327V64.32H330.687V62.64ZM322.487 51.14C325.207 51.14 327.107 52.34 327.107 54.24C327.107 56.16 325.207 57.36 322.487 57.36C319.747 57.36 317.847 56.16 317.847 54.24C317.847 52.34 319.747 51.14 322.487 51.14ZM320.207 62.64V58.72C320.907 58.88 321.667 58.96 322.487 58.96C323.287 58.96 324.067 58.88 324.767 58.7V62.64H320.207ZM336.905 60.88L337.305 49.94H334.985L335.045 52.3L335.365 60.88H336.905ZM334.965 65.26H337.325V62.78H334.965V65.26Z" fill="#3A4552"/>
<path d="M170.466 57.24V55.54H167.646V48.48H165.586V66.56H167.646V57.24H170.466ZM162.126 60.28V51.96H163.886V50.3H153.906V51.96H155.666V60.52H153.446L153.666 62.22C156.806 62.22 160.986 62.18 164.726 61.54L164.606 60.02C163.806 60.12 162.986 60.2 162.126 60.28ZM157.666 60.48V51.96H160.126V60.38C159.306 60.44 158.466 60.46 157.666 60.48ZM189.425 62.72H182.265V59.32H187.605V57.68H177.185V55.32H187.045V53.7H177.185V51.52H187.445V49.84H175.085V59.32H180.185V62.72H173.065V64.42H189.425V62.72ZM209.163 57.48V55.76H206.503V48.48H204.443V66.52H206.503V57.48H209.163ZM198.863 60.96V58.18C201.103 57.76 202.643 56.2 202.643 53.94C202.643 51.38 200.603 49.6 197.823 49.6C195.043 49.6 192.983 51.38 192.983 53.94C192.983 56.18 194.563 57.78 196.803 58.2V61.04C195.183 61.1 193.623 61.08 192.263 61.08L192.543 62.78C195.663 62.78 199.763 62.74 203.563 62.1L203.383 60.58C201.943 60.8 200.403 60.9 198.863 60.96ZM194.983 53.94C194.983 52.34 196.143 51.36 197.823 51.36C199.503 51.36 200.643 52.34 200.643 53.94C200.643 55.54 199.503 56.5 197.823 56.5C196.143 56.5 194.983 55.54 194.983 53.94ZM229.114 55.44L231.134 55.66C231.634 53.8 231.634 52.3 231.634 50.86V49.34H219.234V51H229.594C229.594 52.36 229.574 53.66 229.114 55.44ZM233.634 56.74H225.834V53.42H223.754V56.74H217.354V58.4H233.634V56.74ZM225.434 59.8C221.534 59.8 219.074 61.08 219.074 63.16C219.074 65.26 221.534 66.54 225.434 66.54C229.274 66.54 231.754 65.26 231.754 63.16C231.754 61.08 229.274 59.8 225.434 59.8ZM225.434 64.96C222.694 64.96 221.114 64.3 221.114 63.16C221.114 62.04 222.694 61.38 225.434 61.38C228.094 61.38 229.694 62.04 229.694 63.16C229.694 64.3 228.094 64.96 225.434 64.96ZM244.873 57.12C248.653 57.12 251.273 55.58 251.273 53.12C251.273 50.7 248.653 49.14 244.873 49.14C241.053 49.14 238.453 50.7 238.453 53.12C238.453 55.58 241.053 57.12 244.873 57.12ZM244.873 50.8C247.433 50.8 249.153 51.68 249.153 53.12C249.153 54.58 247.453 55.46 244.873 55.46C242.213 55.46 240.573 54.58 240.573 53.12C240.573 51.68 242.273 50.8 244.873 50.8ZM253.113 60.36L253.093 58.66H236.713V60.36H240.713V66.54H242.813V60.36H246.933V66.54H249.033V60.36H253.113Z" fill="#3888EE"/>
<path d="M75.6576 22.136V8.96H72.4656V22.136H75.6576ZM69.2976 21.08L70.8336 18.584C69.9376 18.312 69.1616 17.952 68.5056 17.504C67.8656 17.056 67.3376 16.544 66.9216 15.968C66.5056 15.392 66.1936 14.776 65.9856 14.12C65.7936 13.448 65.6976 12.768 65.6976 12.08V9.968H62.4816V12.08C62.4816 12.768 62.3776 13.464 62.1696 14.168C61.9776 14.856 61.6656 15.512 61.2336 16.136C60.8016 16.744 60.2496 17.296 59.5776 17.792C58.9216 18.272 58.1296 18.656 57.2016 18.944L58.7616 21.44C60.0576 21.024 61.1456 20.408 62.0256 19.592C62.9216 18.76 63.6256 17.808 64.1376 16.736C64.6336 17.744 65.3056 18.624 66.1536 19.376C67.0016 20.112 68.0496 20.68 69.2976 21.08ZM75.6576 23.096H60.5856V25.64H72.4656V31.088H75.6576V23.096ZM97.8798 20.096H101.096V17.456H97.8798V8.96H94.7118V31.064H97.8798V20.096ZM88.7118 13.88V10.664H85.5198V13.88C85.5198 14.904 85.4078 15.928 85.1838 16.952C84.9758 17.96 84.6478 18.912 84.1998 19.808C83.7678 20.704 83.2078 21.512 82.5198 22.232C81.8478 22.952 81.0478 23.528 80.1198 23.96L82.0158 26.528C83.2638 25.92 84.3038 25.064 85.1358 23.96C85.9838 22.84 86.6478 21.576 87.1278 20.168C87.5918 21.528 88.2158 22.712 88.9998 23.72C89.7838 24.728 90.7518 25.528 91.9038 26.12L93.8238 23.624C92.9438 23.192 92.1758 22.632 91.5198 21.944C90.8798 21.24 90.3518 20.456 89.9358 19.592C89.5198 18.728 89.2078 17.808 88.9998 16.832C88.8078 15.856 88.7118 14.872 88.7118 13.88ZM154.074 18.512V15.896H151.29V8.96H148.122V25.832H151.29V18.512H154.074ZM147.162 22.04L146.97 19.808C146.154 19.936 145.33 20.032 144.498 20.096C143.666 20.16 142.818 20.216 141.954 20.264V18.68C143.154 18.408 144.106 17.896 144.81 17.144C145.514 16.376 145.866 15.44 145.866 14.336C145.866 13.68 145.73 13.08 145.458 12.536C145.186 11.976 144.802 11.504 144.306 11.12C143.826 10.72 143.242 10.408 142.554 10.184C141.882 9.96 141.146 9.848 140.346 9.848C139.546 9.848 138.81 9.96 138.138 10.184C137.466 10.408 136.882 10.72 136.386 11.12C135.906 11.504 135.53 11.976 135.258 12.536C134.986 13.08 134.85 13.68 134.85 14.336C134.85 15.44 135.202 16.376 135.906 17.144C136.626 17.912 137.586 18.424 138.786 18.68V20.384C137.874 20.416 136.994 20.432 136.146 20.432H133.698L134.082 22.952C134.994 22.952 135.978 22.944 137.034 22.928C138.09 22.912 139.178 22.872 140.298 22.808C141.434 22.744 142.578 22.656 143.73 22.544C144.898 22.416 146.042 22.248 147.162 22.04ZM137.802 14.336C137.802 13.664 138.034 13.144 138.498 12.776C138.962 12.408 139.578 12.224 140.346 12.224C141.114 12.224 141.738 12.408 142.218 12.776C142.698 13.144 142.938 13.664 142.938 14.336C142.938 15.008 142.698 15.528 142.218 15.896C141.738 16.264 141.114 16.448 140.346 16.448C139.578 16.448 138.962 16.264 138.498 15.896C138.034 15.528 137.802 15.008 137.802 14.336ZM152.034 28.16H139.746V24.392H136.578V30.68H152.034V28.16ZM175.528 22.136V8.984H172.36V12.2H168.424V10.256H165.328V13.352H161.128V10.256H157.984V21.176H168.424V19.256H172.36V22.136H175.528ZM172.36 14.72V16.736H168.424V14.72H172.36ZM161.128 15.776H165.328V18.632H161.128V15.776ZM175.528 23.144H160.48V25.64H172.36V31.088H175.528V23.144ZM197.678 20.216H200.846V17.6H197.678V8.96H194.51V31.064H197.678V20.216ZM193.07 12.224H188.27V9.344H185.102V12.224H180.206V14.744H193.07V12.224ZM186.71 15.992C185.91 15.992 185.166 16.12 184.478 16.376C183.79 16.632 183.19 17 182.678 17.48C182.182 17.944 181.79 18.496 181.502 19.136C181.23 19.776 181.094 20.48 181.094 21.248C181.094 22.032 181.23 22.752 181.502 23.408C181.79 24.048 182.182 24.608 182.678 25.088C183.19 25.552 183.79 25.912 184.478 26.168C185.166 26.424 185.91 26.552 186.71 26.552C187.51 26.552 188.246 26.424 188.918 26.168C189.606 25.912 190.198 25.552 190.694 25.088C191.19 24.608 191.574 24.048 191.846 23.408C192.134 22.752 192.278 22.032 192.278 21.248C192.278 20.48 192.134 19.776 191.846 19.136C191.574 18.496 191.19 17.944 190.694 17.48C190.198 17 189.606 16.632 188.918 16.376C188.246 16.12 187.51 15.992 186.71 15.992ZM186.71 23.96C185.942 23.96 185.318 23.728 184.838 23.264C184.358 22.8 184.118 22.136 184.118 21.272C184.118 20.408 184.358 19.744 184.838 19.28C185.318 18.8 185.942 18.56 186.71 18.56C187.478 18.56 188.094 18.8 188.558 19.28C189.038 19.76 189.278 20.416 189.278 21.248C189.278 22.112 189.038 22.784 188.558 23.264C188.094 23.728 187.478 23.96 186.71 23.96ZM215.364 17.792H218.916V21.656H222.084V8.96H218.916V11.168H215.364V13.688H218.916V15.272H215.364V17.792ZM215.028 21.584L216.78 19.088C215.916 18.768 215.172 18.352 214.548 17.84C213.924 17.312 213.412 16.728 213.012 16.088C212.612 15.432 212.316 14.736 212.124 14C211.932 13.264 211.836 12.52 211.836 11.768V9.752H208.644V11.768C208.644 12.552 208.548 13.328 208.356 14.096C208.164 14.864 207.852 15.584 207.42 16.256C207.004 16.912 206.468 17.512 205.812 18.056C205.156 18.584 204.372 19.016 203.46 19.352L205.164 21.848C206.412 21.384 207.452 20.728 208.284 19.88C209.132 19.016 209.796 18.032 210.276 16.928C210.74 17.984 211.356 18.912 212.124 19.712C212.908 20.496 213.876 21.12 215.028 21.584ZM220.02 23V22.496H216.9V23C216.9 23.4 216.852 23.824 216.756 24.272C216.66 24.72 216.508 25.16 216.3 25.592C216.108 26.024 215.852 26.44 215.532 26.84C215.212 27.24 214.828 27.6 214.38 27.92C213.5 27.312 212.868 26.568 212.484 25.688C212.1 24.808 211.908 23.912 211.908 23V22.496H208.836V23C208.836 23.56 208.756 24.112 208.596 24.656C208.452 25.2 208.212 25.712 207.876 26.192C207.54 26.672 207.108 27.112 206.58 27.512C206.068 27.896 205.452 28.216 204.732 28.472L206.268 30.752C207.276 30.384 208.116 29.88 208.788 29.24C209.46 28.6 209.988 27.864 210.372 27.032C210.74 27.896 211.244 28.672 211.884 29.36C212.54 30.064 213.38 30.608 214.404 30.992C215.412 30.592 216.236 30.04 216.876 29.336C217.516 28.632 218.02 27.848 218.388 26.984C218.772 27.848 219.3 28.6 219.972 29.24C220.644 29.896 221.508 30.4 222.564 30.752L224.148 28.472C223.412 28.248 222.78 27.952 222.252 27.584C221.74 27.2 221.316 26.768 220.98 26.288C220.644 25.808 220.396 25.288 220.236 24.728C220.092 24.168 220.02 23.592 220.02 23ZM244.186 19.904H247.282V17.288H244.186V8.936H241.018V31.016H244.186V19.904ZM230.722 23V11.048H227.554V25.64H229.474C231.122 25.64 232.81 25.576 234.538 25.448C236.282 25.32 238.074 25.064 239.914 24.68L239.602 22.088C238.05 22.392 236.53 22.616 235.042 22.76C233.57 22.888 232.13 22.968 230.722 23ZM270.176 28.496V25.928H265.736V20.528C266.568 20.016 267.216 19.376 267.68 18.608C268.16 17.824 268.4 16.952 268.4 15.992C268.4 15.08 268.192 14.264 267.776 13.544C267.36 12.808 266.784 12.184 266.048 11.672C265.328 11.144 264.464 10.744 263.456 10.472C262.448 10.184 261.344 10.04 260.144 10.04C258.96 10.04 257.864 10.184 256.856 10.472C255.848 10.744 254.976 11.144 254.24 11.672C253.52 12.184 252.952 12.808 252.536 13.544C252.12 14.264 251.912 15.08 251.912 15.992C251.896 16.952 252.12 17.824 252.584 18.608C253.048 19.376 253.712 20.016 254.576 20.528V25.928H250.16V28.496H270.176ZM260.144 12.536C260.912 12.536 261.608 12.616 262.232 12.776C262.872 12.92 263.416 13.144 263.864 13.448C264.312 13.736 264.656 14.096 264.896 14.528C265.152 14.944 265.28 15.432 265.28 15.992C265.28 16.536 265.152 17.024 264.896 17.456C264.656 17.888 264.312 18.256 263.864 18.56C263.416 18.848 262.872 19.072 262.232 19.232C261.608 19.376 260.912 19.448 260.144 19.448C258.608 19.448 257.368 19.152 256.424 18.56C255.496 17.952 255.032 17.096 255.032 15.992C255.032 14.888 255.496 14.04 256.424 13.448C257.368 12.84 258.608 12.536 260.144 12.536ZM262.592 25.928H257.72V21.704C258.488 21.848 259.296 21.92 260.144 21.92C261.008 21.92 261.824 21.848 262.592 21.704V25.928ZM276.942 23.96H279.654C279.542 23.048 279.558 22.32 279.702 21.776C279.846 21.216 280.062 20.752 280.35 20.384C280.654 20.016 280.99 19.696 281.358 19.424C281.742 19.136 282.102 18.816 282.438 18.464C282.774 18.112 283.054 17.672 283.278 17.144C283.518 16.616 283.638 15.92 283.638 15.056C283.638 14.336 283.51 13.696 283.254 13.136C282.998 12.576 282.646 12.104 282.198 11.72C281.75 11.32 281.214 11.016 280.59 10.808C279.982 10.584 279.326 10.456 278.622 10.424C278.03 10.392 277.422 10.464 276.798 10.64C276.174 10.8 275.598 11.096 275.07 11.528C274.558 11.96 274.118 12.536 273.75 13.256C273.398 13.976 273.19 14.864 273.126 15.92H276.126C276.19 14.96 276.438 14.248 276.87 13.784C277.302 13.32 277.854 13.088 278.526 13.088C279.198 13.088 279.686 13.304 279.99 13.736C280.294 14.152 280.446 14.672 280.446 15.296C280.446 15.808 280.342 16.24 280.134 16.592C279.926 16.928 279.67 17.248 279.366 17.552C279.062 17.84 278.734 18.144 278.382 18.464C278.046 18.768 277.75 19.16 277.494 19.64C277.238 20.104 277.046 20.68 276.918 21.368C276.806 22.056 276.814 22.92 276.942 23.96ZM276.534 29.336H280.038V25.928H276.534V29.336Z" fill="#161D24"/>
<path d="M124.182 17.936V15.344H121.254V8.96H118.086V25.088H121.254V17.936H124.182ZM104.502 21.44H115.038V10.784H104.502V21.44ZM107.598 13.28H111.918V18.944H107.598V13.28ZM122.046 28.16H110.166V23.504H106.998V30.68H122.046V28.16Z" fill="#3888EE"/>
<circle cx="114" cy="3" r="3" fill="#3888EE"/>
</svg>
