<svg width="24" height="24" viewBox="0 0 24 24" fill="none" xmlns="http://www.w3.org/2000/svg">
<path d="M19.1572 11.9556C19.1572 14.1778 17.3421 15.9853 15.1104 15.9853V11.9556H19.1572Z" fill="#4B94F0"/>
<path d="M19.4403 2.91846H16.7176C16.4795 2.91846 16.2861 3.12587 16.2861 3.27402V11.5853C16.2861 11.7334 16.4795 12.0297 16.7176 12.0297H19.4403C19.6784 12.0297 19.8718 11.7334 19.8718 11.5853V3.28883C19.8718 3.14068 19.6784 2.93327 19.4403 2.93327V2.91846Z" fill="#87B8F5"/>
<path d="M19.7192 2H16.4162C16.1336 2 15.8955 2.25186 15.8955 2.44445V2.9778C15.8955 3.17039 16.1336 3.51114 16.4162 3.51114H19.7192C20.0019 3.51114 20.24 3.15558 20.24 2.9778V2.44445C20.24 2.25186 20.0019 2 19.7192 2Z" fill="#73ACF3"/>
<path d="M15.1677 16.4444C15.1677 15.748 15.3462 15.0962 15.6587 14.5332H5.82411C6.13655 15.0962 6.31509 15.748 6.31509 16.4444C6.31509 17.7481 5.67533 18.637 4.69336 19.3629H16.7894C15.8074 18.637 15.1677 17.7481 15.1677 16.4444Z" fill="#73ACF3"/>
<path d="M17.1183 19.3636C17.1183 19.5858 16.9249 19.7784 16.6869 19.7784H4.76936C4.53131 19.7784 4.33789 19.5858 4.33789 19.3636C4.33789 19.1413 4.53131 18.9487 4.76936 18.9487H16.6869C16.9249 18.9487 17.1183 19.1413 17.1183 19.3636Z" fill="#73ACF3"/>
<path d="M10.747 16.9483C14.2732 16.9483 17.1298 14.7112 17.1298 11.9556H4.36426C4.36426 14.7112 7.22089 16.9483 10.747 16.9483Z" fill="#87B8F5"/>
<path d="M16.4784 11.7481C16.4784 12.0296 16.285 12.2518 16.0469 12.2518H3.83186C3.59381 12.2518 3.40039 12.0296 3.40039 11.7481C3.40039 11.4666 3.59381 11.2444 3.83186 11.2444H16.0469C16.285 11.2444 16.4784 11.4666 16.4784 11.7481Z" fill="#73ACF3"/>
<path d="M16.4784 10.8101C16.4784 11.0916 16.285 11.3138 16.0469 11.3138H3.83186C3.59381 11.3138 3.40039 11.0916 3.40039 10.8101C3.40039 10.5286 3.59381 10.3064 3.83186 10.3064H16.0469C16.285 10.3064 16.4784 10.5286 16.4784 10.8101Z" fill="#4B94F0"/>
<path d="M16.2814 10.4893C16.7427 10.4893 17.1146 10.8596 17.1146 11.3189C17.1146 11.7782 16.7427 12.1485 16.2814 12.1485C15.8202 12.1485 15.4482 11.7782 15.4482 11.3189C15.4482 10.8596 15.8202 10.4893 16.2814 10.4893Z" fill="#FFE62E"/>
<path d="M19.0699 4.04419C19.0699 4.59235 18.6235 5.0368 18.073 5.0368C17.5225 5.0368 17.0762 4.59235 17.0762 4.04419H19.0699Z" fill="#FFE62E"/>
</svg>
